<svg width="40" height="40" viewBox="0 0 40 40" fill="none" xmlns="http://www.w3.org/2000/svg">
<path fill-rule="evenodd" clip-rule="evenodd" d="M7.19688 22.0707L2.81868 34.5322C2.55321 35.2878 1.72546 35.6851 0.969847 35.4197C0.214238 35.1542 -0.183094 34.3264 0.0823803 33.5708L4.46058 21.1094C5.3631 18.5406 8.98821 18.5188 9.92146 21.0766L14.4742 33.5545C14.7487 34.3068 14.3613 35.1393 13.6089 35.4138C12.8565 35.6883 12.0241 35.3009 11.7496 34.5486L7.19688 22.0707Z" fill="#6E6EDB"/>
<path fill-rule="evenodd" clip-rule="evenodd" d="M1.98084 30.089C1.98084 29.2881 2.63008 28.6388 3.43097 28.6388H11.1318C11.9327 28.6388 12.582 29.2881 12.582 30.089C12.582 30.8898 11.9327 31.5391 11.1318 31.5391H3.43097C2.63008 31.5391 1.98084 30.8898 1.98084 30.089Z" fill="#6E6EDB"/>
<path fill-rule="evenodd" clip-rule="evenodd" d="M19.0518 18.2953C19.8527 18.2953 20.5019 18.9445 20.5019 19.7454V34.047C20.5019 34.8479 19.8527 35.4971 19.0518 35.4971C18.2509 35.4971 17.6017 34.8479 17.6017 34.047V19.7454C17.6017 18.9445 18.2509 18.2953 19.0518 18.2953Z" fill="#6E6EDB"/>
<path d="M31.8789 10.2327C32.0494 9.44346 33.1753 9.44346 33.3457 10.2327L33.697 11.8591C34.2468 14.4048 36.2517 16.3835 38.8045 16.8998L39.3985 17.02C40.2006 17.1822 40.2006 18.3286 39.3985 18.4908L38.6917 18.6338C36.1966 19.1384 34.2194 21.0421 33.6205 23.5162L33.3416 24.6685C33.1564 25.4336 32.0683 25.4336 31.8831 24.6685L31.6041 23.5163C31.0053 21.0421 29.028 19.1384 26.5329 18.6338L25.8262 18.4908C25.0241 18.3286 25.0241 17.1822 25.8262 17.02L26.4202 16.8998C28.9729 16.3835 30.9778 14.4048 31.5277 11.8591L31.8789 10.2327Z" fill="#4AA147"/>
<path d="M17.8046 5.03628C17.974 4.31851 18.9956 4.31851 19.1649 5.03628C19.635 7.02823 21.1903 8.58353 23.1822 9.05357C23.9 9.22295 23.9 10.2445 23.1822 10.4139C21.1903 10.8839 19.635 12.4392 19.1649 14.4312C18.9956 15.1489 17.974 15.1489 17.8046 14.4312C17.3346 12.4392 15.7793 10.8839 13.7874 10.4139C13.0696 10.2445 13.0696 9.22295 13.7874 9.05357C15.7793 8.58353 17.3346 7.02823 17.8046 5.03628Z" fill="#D341A5"/>
</svg>
