<svg width="20" height="20" viewBox="0 0 20 20" fill="none" xmlns="http://www.w3.org/2000/svg">
<path d="M16.5633 8.73697C18.4614 6.84962 19.0833 4.39765 17.9524 3.26034C16.8215 2.12303 14.366 2.73107 12.468 4.61842C10.5699 6.50577 9.94802 8.95774 11.0789 10.095C12.2098 11.2324 14.6652 10.6243 16.5633 8.73697Z" fill="#1F80FF"/>
<path d="M15.9038 17.2458C16.7556 16.3879 16.3418 14.596 14.9795 13.2433C13.6173 11.8907 11.8225 11.4895 10.9707 12.3474C10.1189 13.2052 10.5327 14.9972 11.8949 16.3498C13.2571 17.7025 15.052 18.1036 15.9038 17.2458Z" fill="#48AD1E"/>
<path d="M8.92114 10.1026C10.052 8.96527 9.43012 6.5133 7.53206 4.62595C5.634 2.7386 3.17855 2.13056 2.04766 3.26787C0.916768 4.40518 1.53868 6.85715 3.43674 8.7445C5.3348 10.6318 7.79025 11.2399 8.92114 10.1026Z" fill="#D32A97"/>
<path d="M8.12283 16.3454C9.48507 14.9928 9.89887 13.2008 9.04708 12.343C8.19528 11.4852 6.40045 11.8863 5.03821 13.2389C3.67597 14.5916 3.26217 16.3835 4.11397 17.2414C4.96576 18.0992 6.76059 17.6981 8.12283 16.3454Z" fill="#FF6529"/>
</svg>
