<svg width="28" height="28" viewBox="0 0 28 28" fill="none" xmlns="http://www.w3.org/2000/svg">
<path fill-rule="evenodd" clip-rule="evenodd" d="M4.31218 1L5.17135 2.69037L6.83303 3.56438L5.17135 4.43838L4.31218 6.12876L3.45302 4.43838L1.79134 3.56438L3.45302 2.69037L4.31218 1ZM12.3188 4.39551L11.2449 2.28255L10.1709 4.39551L8.0938 5.48802L10.1709 6.58053L11.2449 8.6935L12.3188 6.58053L14.3959 5.48802L12.3188 4.39551ZM21.3285 4.64697C20.7047 4.02797 19.7056 4.04065 19.0972 4.67529L1.44834 23.0826C0.839845 23.7173 0.852311 24.7335 1.47618 25.3525L2.67694 26.5439C3.30081 27.1629 4.29984 27.1502 4.90833 26.5156L22.5571 8.10828C23.1656 7.47363 23.1532 6.45735 22.5293 5.83835L21.3285 4.64697ZM14.762 10.7294L2.20142 23.8298C1.99859 24.0414 2.00274 24.3801 2.2107 24.5865L3.41146 25.7778C3.61941 25.9842 3.95242 25.9799 4.15525 25.7684L16.7158 12.668L14.762 10.7294ZM22.5885 13.8218L24.0921 16.78L27 18.3095L24.0921 19.839L22.5885 22.7971L21.085 19.839L18.177 18.3095L21.085 16.78L22.5885 13.8218ZM7.2629 8.25661L6.83331 7.41143L6.40373 8.25661L5.57289 8.69362L6.40373 9.13062L6.83331 9.97581L7.2629 9.13062L8.09374 8.69362L7.2629 8.25661Z" fill="#545C6B"/>
</svg>
