<svg width="367" height="62" viewBox="0 0 367 62" fill="none" xmlns="http://www.w3.org/2000/svg">
<path fill-rule="evenodd" clip-rule="evenodd" d="M30 1C41.2152 1 46.8231 0.999693 51 3.41113C53.7363 4.99096 56.0091 7.26366 57.5889 10C60.0003 14.1769 60 19.7848 60 31C60 42.2152 60.0003 47.8231 57.5889 52C56.0091 54.7363 53.7363 57.0091 51 58.5889C46.8231 61.0003 41.2152 61 30 61C18.7848 61 13.1769 61.0003 9 58.5889C6.26366 57.0091 3.99096 54.7363 2.41113 52C-0.000307381 47.8231 0 42.2152 0 31C0 19.7848 -0.000307381 14.1769 2.41113 10C3.99096 7.26366 6.26366 4.99096 9 3.41113C13.1769 0.999693 18.7848 1 30 1ZM33 7C19.7451 7 9 17.7451 9 31C9 44.2549 19.7451 55 33 55C46.2549 55 57 44.2549 57 31C57 17.7451 46.2549 7 33 7Z" fill="#02BB36"/>
<path d="M54 31C54 39.2842 47.2842 46 39 46C30.7158 46 24 39.2842 24 31C24 22.7158 30.7158 16 39 16C47.2842 16 54 22.7158 54 31Z" fill="#02BB36"/>
<path d="M78.2 45V17.016H85.68V38.84H96.372V45H78.2ZM99.8992 45V17.016H120.051V22.736H107.379V27.928H118.335V33.648H107.379V39.28H120.315V45H99.8992ZM137.219 45.308C134.462 45.308 131.998 44.78 129.827 43.724C127.686 42.6387 125.999 41.0253 124.767 38.884C123.564 36.7427 122.963 34.088 122.963 30.92C122.963 26.6373 124.136 23.2347 126.483 20.712C128.859 18.16 132.35 16.884 136.955 16.884C139.39 16.884 141.487 17.2067 143.247 17.852C145.036 18.4973 146.518 19.2747 147.691 20.184L145.447 25.288C144.538 24.7013 143.423 24.2173 142.103 23.836C140.812 23.4253 139.522 23.22 138.231 23.22C135.884 23.22 134.066 23.9387 132.775 25.376C131.514 26.784 130.883 28.6613 130.883 31.008C130.883 32.856 131.235 34.3667 131.939 35.54C132.643 36.684 133.567 37.5347 134.711 38.092C135.855 38.62 137.072 38.884 138.363 38.884C139.038 38.884 139.624 38.84 140.123 38.752C140.622 38.6347 140.988 38.5173 141.223 38.4V34.176H136.471V28.544H148.703V40.952C147.618 42.2427 146.063 43.2987 144.039 44.12C142.015 44.912 139.742 45.308 137.219 45.308ZM166.867 45.176C163.933 45.176 161.396 44.6187 159.255 43.504C157.143 42.36 155.515 40.732 154.371 38.62C153.227 36.508 152.655 33.9853 152.655 31.052C152.655 28.1187 153.227 25.596 154.371 23.484C155.515 21.3427 157.143 19.7 159.255 18.556C161.396 17.412 163.933 16.84 166.867 16.84C169.8 16.84 172.293 17.412 174.347 18.556C176.429 19.7 178.013 21.3427 179.099 23.484C180.184 25.596 180.727 28.1187 180.727 31.052C180.727 35.452 179.509 38.9133 177.075 41.436C174.669 43.9293 171.267 45.176 166.867 45.176ZM166.867 38.84C168.861 38.84 170.372 38.1947 171.399 36.904C172.455 35.584 172.983 33.648 172.983 31.096C172.983 28.544 172.455 26.5933 171.399 25.244C170.372 23.8653 168.861 23.176 166.867 23.176C164.872 23.176 163.288 23.8653 162.115 25.244C160.971 26.5933 160.399 28.544 160.399 31.096C160.399 33.648 160.971 35.584 162.115 36.904C163.288 38.1947 164.872 38.84 166.867 38.84ZM195.237 45L197.877 17.016H206.677L212.441 32.636L212.573 33.164L212.661 32.636L218.733 17.016H227.533L229.733 45H221.813L220.933 28.06L220.801 27.312H220.713L220.493 28.06L215.213 42.36H209.933L204.609 28.06L204.433 27.312H204.301L204.169 28.06L203.157 45H195.237ZM233.264 45L242.944 16.972H251.876L260.808 45H252.756L251.084 39.456H243.164L241.492 45H233.264ZM244.836 33.296H249.852L247.52 25.244H247.344L244.836 33.296ZM282.194 45.572L272.25 34.528V45H264.77V17.016H272.25V28.148L281.71 16.752L287.122 21.284L278.278 31.404L287.386 40.556L282.194 45.572ZM290.895 45V17.016H311.047V22.736H298.375V27.928H309.331V33.648H298.375V39.28H311.311V45H290.895ZM334.223 47.156L322.739 35.716V45H315.259V19.656C315.963 19.1867 316.901 18.7467 318.075 18.336C319.277 17.896 320.612 17.544 322.079 17.28C323.545 16.9867 325.041 16.84 326.567 16.84C330.292 16.84 333.196 17.7053 335.279 19.436C337.391 21.1667 338.447 23.5573 338.447 26.608C338.447 28.9253 337.86 30.8613 336.687 32.416C335.543 33.9707 333.988 35.1147 332.023 35.848L339.283 41.7L334.223 47.156ZM326.919 31.272C328.209 31.272 329.207 30.8613 329.911 30.04C330.615 29.2187 330.967 28.1773 330.967 26.916C330.967 25.6253 330.585 24.5987 329.823 23.836C329.089 23.044 327.945 22.648 326.391 22.648C324.924 22.648 323.707 22.9413 322.739 23.528V26.96C322.739 28.3387 323.135 29.4093 323.927 30.172C324.748 30.9053 325.745 31.272 326.919 31.272ZM353.196 45.396C350.967 45.396 348.825 45.0733 346.772 44.428C344.748 43.7533 343.135 42.9027 341.932 41.876L344.352 36.464C344.968 36.9333 345.731 37.3587 346.64 37.74C347.549 38.1213 348.532 38.4293 349.588 38.664C350.644 38.8987 351.656 39.016 352.624 39.016C354.032 39.016 355 38.796 355.528 38.356C356.056 37.916 356.32 37.4027 356.32 36.816C356.32 36.2293 356.1 35.76 355.66 35.408C355.249 35.056 354.575 34.704 353.636 34.352L349.94 32.988C347.652 32.1373 345.804 31.1107 344.396 29.908C343.017 28.676 342.328 26.9893 342.328 24.848C342.328 22.3547 343.296 20.404 345.232 18.996C347.197 17.5587 349.984 16.84 353.592 16.84C355.939 16.84 357.963 17.1333 359.664 17.72C361.395 18.2773 362.803 19.0253 363.888 19.964L361.644 25.112C361.028 24.76 360.265 24.4373 359.356 24.144C358.447 23.8507 357.493 23.6307 356.496 23.484C355.528 23.308 354.604 23.22 353.724 23.22C352.521 23.22 351.641 23.3813 351.084 23.704C350.556 24.0267 350.292 24.452 350.292 24.98C350.292 25.42 350.497 25.8307 350.908 26.212C351.319 26.564 352.008 26.916 352.976 27.268L356.188 28.456C359.151 29.5413 361.233 30.7 362.436 31.932C363.668 33.1347 364.284 34.6893 364.284 36.596C364.284 39.148 363.331 41.26 361.424 42.932C359.547 44.5747 356.804 45.396 353.196 45.396Z" fill="black"/>
</svg>
