<svg width="329" height="61" viewBox="0 0 329 61" fill="none" xmlns="http://www.w3.org/2000/svg">
<g clip-path="url(#clip0_50_291)">
<path d="M37.7671 1.58523L31.8475 0L26.8589 18.6065L22.3552 1.80843L16.4354 3.39366L21.3015 21.5427L9.18131 9.4299L4.8478 13.7608L18.1421 27.0472L1.58618 22.6137L0 28.5298L18.0894 33.374C17.8823 32.4812 17.7727 31.551 17.7727 30.5952C17.7727 23.8299 23.2604 18.3455 30.0298 18.3455C36.7992 18.3455 42.2868 23.8299 42.2868 30.5952C42.2868 31.5448 42.1786 32.4693 41.974 33.3568L58.4139 37.7592L60 31.8431L41.8387 26.9797L58.3957 22.5459L56.8095 16.6298L38.6489 21.4929L50.769 9.38017L46.4355 5.04925L33.3257 18.1513L37.7671 1.58523Z" fill="#F97316"/>
<path d="M41.9557 33.4263C41.4482 35.5707 40.3767 37.4971 38.9065 39.0406L50.8164 50.9436L55.15 46.6127L41.9557 33.4263Z" fill="#F97316"/>
<path d="M38.7864 39.1646C37.2984 40.6834 35.4181 41.8168 33.3094 42.4009L37.6433 58.5652L43.5629 56.9799L38.7864 39.1646Z" fill="#F97316"/>
<path d="M33.0883 42.4602C32.1099 42.7115 31.0845 42.8451 30.0278 42.8451C28.8956 42.8451 27.7993 42.6917 26.7585 42.4045L22.4208 58.5836L28.3404 60.1687L33.0883 42.4602Z" fill="#F97316"/>
<path d="M26.5509 42.3452C24.4744 41.7321 22.6275 40.5842 21.1699 39.061L9.23059 50.9932L13.5641 55.3242L26.5509 42.3452Z" fill="#F97316"/>
<path d="M21.0685 38.9557C19.636 37.4229 18.5925 35.5222 18.0958 33.4109L1.60217 37.8277L3.18834 43.7438L21.0685 38.9557Z" fill="#F97316"/>
</g>
<path d="M78.556 44.5845V15.7845H87.196L93.604 40.6605H94.18L93.892 30.6165V15.7845H98.644V44.5845H90.004L83.596 19.7085H83.02L83.308 29.7525V44.5845H78.556ZM113.807 45.2325C111.719 45.2325 109.895 44.7645 108.335 43.8285C106.799 42.8685 105.599 41.5245 104.735 39.7965C103.895 38.0445 103.475 35.9805 103.475 33.6045C103.475 31.2285 103.895 29.1765 104.735 27.4485C105.599 25.6965 106.799 24.3525 108.335 23.4165C109.895 22.4565 111.719 21.9765 113.807 21.9765C115.919 21.9765 117.743 22.4565 119.279 23.4165C120.815 24.3525 122.003 25.6965 122.843 27.4485C123.707 29.1765 124.139 31.2285 124.139 33.6045C124.139 35.9805 123.707 38.0445 122.843 39.7965C122.003 41.5245 120.815 42.8685 119.279 43.8285C117.743 44.7645 115.919 45.2325 113.807 45.2325ZM113.807 40.5525C115.487 40.5525 116.783 39.9405 117.695 38.7165C118.607 37.4925 119.063 35.7885 119.063 33.6045C119.063 31.4205 118.607 29.7165 117.695 28.4925C116.783 27.2685 115.487 26.6565 113.807 26.6565C112.151 26.6565 110.855 27.2685 109.919 28.4925C109.007 29.7165 108.551 31.4205 108.551 33.6045C108.551 35.7885 109.007 37.4925 109.919 38.7165C110.855 39.9405 112.151 40.5525 113.807 40.5525ZM129.438 22.6245H138.582V24.4965H139.842C140.25 23.7045 140.838 23.0925 141.606 22.6605C142.398 22.2285 143.298 22.0125 144.306 22.0125C146.058 22.0125 147.39 22.6605 148.302 23.9565C149.238 25.2285 149.706 27.0885 149.706 29.5365V32.9205H144.414V30.2205C144.414 28.0605 143.586 26.9805 141.93 26.9805C140.874 26.9805 140.094 27.4605 139.59 28.4205C139.086 29.3565 138.834 30.7845 138.834 32.7045V39.9045H145.242V44.5845H129.942V39.9045H133.794V27.3045H129.438V22.6245ZM163.789 16.9365V22.6245H173.473V27.3045H163.789V37.0965C163.789 38.2245 164.005 39.0885 164.437 39.6885C164.869 40.2645 165.505 40.5525 166.345 40.5525C167.209 40.5525 167.893 40.2165 168.397 39.5445C168.925 38.8725 169.333 37.8045 169.621 36.3405H174.193C174.073 39.2205 173.317 41.4285 171.925 42.9645C170.557 44.4765 168.649 45.2325 166.201 45.2325C163.753 45.2325 161.869 44.5365 160.549 43.1445C159.253 41.7285 158.605 39.7365 158.605 37.1685V27.3045H154.249V22.6245H158.605V16.9365H163.789ZM180.32 44.5845V14.0565H185.504V24.5325H186.764C187.268 23.7165 187.952 23.0925 188.816 22.6605C189.68 22.2045 190.652 21.9765 191.732 21.9765C193.22 21.9765 194.492 22.3245 195.548 23.0205C196.628 23.6925 197.456 24.6765 198.032 25.9725C198.608 27.2445 198.896 28.7685 198.896 30.5445V44.5845H193.712V31.8405C193.712 30.2085 193.364 28.9725 192.668 28.1325C191.972 27.2685 190.952 26.8365 189.608 26.8365C188.264 26.8365 187.244 27.2685 186.548 28.1325C185.852 28.9725 185.504 30.2085 185.504 31.8405V44.5845H180.32ZM205.347 44.5845V15.7845H216.003C217.923 15.7845 219.591 16.1445 221.007 16.8645C222.423 17.5605 223.515 18.5685 224.283 19.8885C225.075 21.2085 225.471 22.7565 225.471 24.5325C225.471 26.1645 225.075 27.6045 224.283 28.8525C223.491 30.1005 222.375 31.0725 220.935 31.7685C219.519 32.4645 217.875 32.8125 216.003 32.8125H210.747V44.5845H205.347ZM220.107 44.5845L212.727 31.9125H218.487L226.191 44.5845H220.107ZM210.747 28.2405H215.931C217.203 28.2405 218.211 27.9045 218.955 27.2325C219.699 26.5605 220.071 25.6725 220.071 24.5685C220.071 23.4405 219.699 22.5405 218.955 21.8685C218.211 21.1965 217.203 20.8605 215.931 20.8605H210.747V28.2405ZM239.842 45.2325C237.754 45.2325 235.93 44.7645 234.37 43.8285C232.834 42.8685 231.634 41.5245 230.77 39.7965C229.93 38.0445 229.51 35.9805 229.51 33.6045C229.51 31.2285 229.93 29.1765 230.77 27.4485C231.634 25.6965 232.834 24.3525 234.37 23.4165C235.93 22.4565 237.754 21.9765 239.842 21.9765C241.954 21.9765 243.778 22.4565 245.314 23.4165C246.85 24.3525 248.038 25.6965 248.878 27.4485C249.742 29.1765 250.174 31.2285 250.174 33.6045C250.174 35.9805 249.742 38.0445 248.878 39.7965C248.038 41.5245 246.85 42.8685 245.314 43.8285C243.778 44.7645 241.954 45.2325 239.842 45.2325ZM239.842 40.5525C241.522 40.5525 242.818 39.9405 243.73 38.7165C244.642 37.4925 245.098 35.7885 245.098 33.6045C245.098 31.4205 244.642 29.7165 243.73 28.4925C242.818 27.2685 241.522 26.6565 239.842 26.6565C238.186 26.6565 236.89 27.2685 235.954 28.4925C235.042 29.7165 234.586 31.4205 234.586 33.6045C234.586 35.7885 235.042 37.4925 235.954 38.7165C236.89 39.9405 238.186 40.5525 239.842 40.5525ZM274.157 22.6245V44.5845H268.973V42.7125H267.713C267.209 43.5045 266.525 44.1285 265.661 44.5845C264.797 45.0165 263.825 45.2325 262.745 45.2325C261.257 45.2325 259.973 44.8965 258.893 44.2245C257.837 43.5285 257.021 42.5445 256.445 41.2725C255.869 39.9765 255.581 38.4405 255.581 36.6645V22.6245H260.765V35.3685C260.765 37.0005 261.113 38.2485 261.809 39.1125C262.505 39.9525 263.525 40.3725 264.869 40.3725C266.213 40.3725 267.233 39.9525 267.929 39.1125C268.625 38.2485 268.973 37.0005 268.973 35.3685V22.6245H274.157ZM289.824 16.9365V22.6245H299.508V27.3045H289.824V37.0965C289.824 38.2245 290.04 39.0885 290.472 39.6885C290.904 40.2645 291.54 40.5525 292.38 40.5525C293.244 40.5525 293.928 40.2165 294.432 39.5445C294.96 38.8725 295.368 37.8045 295.656 36.3405H300.228C300.108 39.2205 299.352 41.4285 297.96 42.9645C296.592 44.4765 294.684 45.2325 292.236 45.2325C289.788 45.2325 287.904 44.5365 286.584 43.1445C285.288 41.7285 284.64 39.7365 284.64 37.1685V27.3045H280.284V22.6245H284.64V16.9365H289.824ZM309.775 31.3365H322.303L320.575 33.3885C320.575 31.1325 320.179 29.4285 319.387 28.2765C318.595 27.1005 317.419 26.5125 315.859 26.5125C314.203 26.5125 312.931 27.1245 312.043 28.3485C311.179 29.5485 310.747 31.2525 310.747 33.4605C310.747 35.8365 311.179 37.6365 312.043 38.8605C312.931 40.0845 314.251 40.6965 316.003 40.6965C317.035 40.6965 317.947 40.4565 318.739 39.9765C319.555 39.4725 320.239 38.7405 320.791 37.7805H325.723C325.291 39.3405 324.607 40.6845 323.671 41.8125C322.759 42.9165 321.643 43.7685 320.323 44.3685C319.003 44.9445 317.527 45.2325 315.895 45.2325C313.783 45.2325 311.971 44.7645 310.459 43.8285C308.947 42.8925 307.783 41.5485 306.967 39.7965C306.151 38.0445 305.743 35.9325 305.743 33.4605C305.743 31.1085 306.163 29.0805 307.003 27.3765C307.843 25.6485 309.019 24.3165 310.531 23.3805C312.043 22.4445 313.819 21.9765 315.859 21.9765C317.827 21.9765 319.507 22.4325 320.899 23.3445C322.291 24.2325 323.359 25.5285 324.103 27.2325C324.847 28.9125 325.219 30.9525 325.219 33.3525C325.219 33.7125 325.207 34.0485 325.183 34.3605C325.159 34.6725 325.135 34.9845 325.111 35.2965H309.775V31.3365Z" fill="#3C2B1F"/>
<defs>
<clipPath id="clip0_50_291">
<rect width="60" height="60.1688" fill="white"/>
</clipPath>
</defs>
</svg>
