<!-- Single-file SVG loader: center app icon with animated, color-pulsing orbits and counter-rotating satellites. -->
<svg xmlns="http://www.w3.org/2000/svg" viewBox="0 0 600 600" role="img" aria-label="App icon with orbiting feature icons used as a loader" width="600" height="600">
  <title>Orbital Loader</title>
  <desc>Central app icon with three dashed circular orbits rotating at different speeds; eight satellite icons counter-rotate to stay upright. Orbit strokes briefly pulse blue in sequence.</desc>

  <!-- ===== Defs: icons, gradients, filters ===== -->
  <defs>
    <!-- Soft halo behind the sun -->
    <radialGradient id="haloGrad" cx="50%" cy="50%" r="50%">
      <stop offset="0%" stop-color="#000" stop-opacity="0.06"/>
      <stop offset="60%" stop-color="#000" stop-opacity="0"/>
    </radialGradient>
    <filter id="haloBlur" x="-50%" y="-50%" width="200%" height="200%">
      <feGaussianBlur stdDeviation="4"/>
    </filter>

    <!-- Icon sprites (from your snippet). Note: removed a malformed path with NaN values in #icon-integration. -->
    <symbol id="icon-app" viewBox="0 0 60 60">
      <rect x="0.5" y="0.5" width="59" height="59" rx="29.5" fill="#FCF2F9" stroke="#F0C0E1"/>
      <g clip-path="url(#clip0_1708_15199)">
        <path d="M14 16.7429C14 15.228 15.228 14 16.7429 14H26.1905C27.7053 14 28.9333 15.228 28.9333 16.7429V26.1905C28.9333 27.7053 27.7053 28.9333 26.1905 28.9333H16.7428C15.228 28.9333 14 27.7053 14 26.1905V16.7429Z" fill="#D341A5"/>
        <path fill-rule="evenodd" clip-rule="evenodd" d="M26.1905 16.2857H16.7429C16.4904 16.2857 16.2857 16.4904 16.2857 16.7429V26.1905C16.2857 26.4429 16.4904 26.6476 16.7428 26.6476H26.1905C26.4429 26.6476 26.6476 26.4429 26.6476 26.1905V16.7429C26.6476 16.4904 26.4429 16.2857 26.1905 16.2857ZM16.7429 14C15.228 14 14 15.228 14 16.7429V26.1905C14 27.7053 15.228 28.9333 16.7428 28.9333H26.1905C27.7053 28.9333 28.9333 27.7053 28.9333 26.1905V16.7429C28.9333 15.228 27.7053 14 26.1905 14H16.7429Z" fill="#D341A5"/>
        <path d="M14 33.8095C14 32.2947 15.228 31.0667 16.7429 31.0667H26.1905C27.7053 31.0667 28.9333 32.2947 28.9333 33.8095V43.2571C28.9333 44.772 27.7053 46 26.1905 46H16.7428C15.228 46 14 44.772 14 43.2571V33.8095Z" fill="#D341A5"/>
        <path fill-rule="evenodd" clip-rule="evenodd" d="M26.1905 33.3524H16.7429C16.4904 33.3524 16.2857 33.5571 16.2857 33.8095V43.2571C16.2857 43.5096 16.4904 43.7143 16.7428 43.7143H26.1905C26.4429 43.7143 26.6476 43.5096 26.6476 43.2571V33.8095C26.6476 33.5571 26.4429 33.3524 26.1905 33.3524ZM16.7429 31.0667C15.228 31.0667 14 32.2947 14 33.8095V43.2571C14 44.772 15.228 46 16.7428 46H26.1905C27.7053 46 28.9333 44.772 28.9333 43.2571V33.8095C28.9333 32.2947 27.7053 31.0667 26.1905 31.0667H16.7429Z" fill="#D341A5"/>
        <path d="M31.0667 33.8095C31.0667 32.2947 32.2947 31.0667 33.8095 31.0667H43.2571C44.772 31.0667 46 32.2947 46 33.8095V43.2571C46 44.772 44.772 46 43.2571 46H33.8095C32.2947 46 31.0667 44.772 31.0667 43.2571V33.8095Z" fill="#D341A5"/>
        <path fill-rule="evenodd" clip-rule="evenodd" d="M43.2571 33.3524H33.8095C33.5571 33.3524 33.3524 33.5571 33.3524 33.8095V43.2571C33.3524 43.5096 33.5571 43.7143 33.8095 43.7143H43.2571C43.5096 43.7143 43.7143 43.5096 43.7143 43.2571V33.8095C43.7143 33.5571 43.5096 33.3524 43.2571 33.3524ZM33.8095 31.0667C32.2947 31.0667 31.0667 32.2947 31.0667 33.8095V43.2571C31.0667 44.772 32.2947 46 33.8095 46H43.2571C44.772 46 46 44.772 46 43.2571V33.8095C46 32.2947 44.772 31.0667 43.2571 31.0667H33.8095Z" fill="#D341A5"/>
        <path fill-rule="evenodd" clip-rule="evenodd" d="M38.5714 14.8571C39.3604 14.8571 39.9999 15.4967 39.9999 16.2857V26.5714C39.9999 27.3604 39.3604 28 38.5714 28C37.7824 28 37.1428 27.3604 37.1428 26.5714V16.2857C37.1428 15.4967 37.7824 14.8571 38.5714 14.8571Z" fill="#D341A5"/>
        <path fill-rule="evenodd" clip-rule="evenodd" d="M32 21.4286C32 20.6396 32.6396 20 33.4285 20H43.7142C44.5032 20 45.1428 20.6396 45.1428 21.4286C45.1428 22.2175 44.5032 22.8571 43.7142 22.8571H33.4285C32.6396 22.8571 32 22.2175 32 21.4286Z" fill="#D341A5"/>
      </g>
      <clipPath id="clip0_1708_15199"><rect width="32" height="32" fill="white" x="14" y="14"/></clipPath>
    </symbol>

    <symbol id="icon-board" viewBox="0 0 40 40">
      <rect x="0.5" y="0.5" width="39" height="39" rx="19.5" fill="#F5F5FD" stroke="#CFCFF3"/>
      <g clip-path="url(#clip0_1708_15131)">
        <path d="M10 11.7143C10 10.7675 10.7675 10 11.7143 10H17.619C18.5658 10 19.3333 10.7675 19.3333 11.7143V17.619C19.3333 18.5658 18.5658 19.3333 17.619 19.3333H11.7143C10.7675 19.3333 10 18.5658 10 17.619V11.7143Z" fill="#6E6EDB"/>
        <path fill-rule="evenodd" clip-rule="evenodd" d="M17.619 11.4286H11.7143C11.5565 11.4286 11.4286 11.5565 11.4286 11.7143V17.619C11.4286 17.7768 11.5565 17.9047 11.7143 17.9047H17.619C17.7768 17.9047 17.9047 17.7768 17.9047 17.619V11.7143C17.9047 11.5565 17.7768 11.4286 17.619 11.4286ZM11.7143 10C10.7675 10 10 10.7675 10 11.7143V17.619C10 18.5658 10.7675 19.3333 11.7143 19.3333H17.619C18.5658 19.3333 19.3333 18.5658 19.3333 17.619V11.7143C19.3333 10.7675 18.5658 10 17.619 10H11.7143Z" fill="#6E6EDB"/>
        <path d="M10 22.3809C10 21.4342 10.7675 20.6666 11.7143 20.6666H17.619C18.5658 20.6666 19.3333 21.4342 19.3333 22.3809V28.2857C19.3333 29.2324 18.5658 30 17.619 30H11.7143C10.7675 30 10 29.2324 10 28.2857V22.3809Z" fill="#6E6EDB"/>
        <path fill-rule="evenodd" clip-rule="evenodd" d="M17.619 22.0952H11.7143C11.5565 22.0952 11.4286 22.2231 11.4286 22.3809V28.2857C11.4286 28.4435 11.5565 28.5714 11.7143 28.5714H17.619C17.7768 28.5714 17.9047 28.4435 17.9047 28.2857V22.3809C17.9047 22.2231 17.7768 22.0952 17.619 22.0952ZM11.7143 20.6666C10.7675 20.6666 10 21.4342 10 22.3809V28.2857C10 29.2324 10.7675 30 11.7143 30H17.619C18.5658 30 19.3333 29.2324 19.3333 28.2857V22.3809C19.3333 21.4342 18.5658 20.6666 17.619 20.6666H11.7143Z" fill="#6E6EDB"/>
        <path d="M20.6667 11.7143C20.6667 10.7675 21.4342 10 22.381 10H28.2857C29.2325 10 30 10.7675 30 11.7143V17.619C30 18.5658 29.2325 19.3333 28.2857 19.3333H22.381C21.4342 19.3333 20.6667 18.5658 20.6667 17.619V11.7143Z" fill="#6E6EDB"/>
        <path fill-rule="evenodd" clip-rule="evenodd" d="M28.2857 11.4286H22.381C22.2232 11.4286 22.0953 11.5565 22.0953 11.7143V17.619C22.0953 17.7768 22.2232 17.9047 22.381 17.9047H28.2857C28.4435 17.9047 28.5714 17.7768 28.5714 17.619V11.7143C28.5714 11.5565 28.4435 11.4286 28.2857 11.4286ZM22.381 10C21.4342 10 20.6667 10.7675 20.6667 11.7143V17.619C20.6667 18.5658 21.4342 19.3333 22.381 19.3333H28.2857C29.2325 19.3333 30 18.5658 30 17.619V11.7143C30 10.7675 29.2325 10 28.2857 10H22.381Z" fill="#6E6EDB"/>
        <path d="M20.6667 22.3809C20.6667 21.4342 21.4342 20.6666 22.381 20.6666H28.2857C29.2325 20.6666 30 21.4342 30 22.3809V28.2857C30 29.2324 29.2325 30 28.2857 30H22.381C21.4342 30 20.6667 29.2324 20.6667 28.2857V22.3809Z" fill="#6E6EDB"/>
        <path fill-rule="evenodd" clip-rule="evenodd" d="M28.2857 22.0952H22.381C22.2232 22.0952 22.0953 22.2231 22.0953 22.3809V28.2857C22.0953 28.4435 22.2232 28.5714 22.381 28.5714H28.2857C28.4435 28.5714 28.5714 28.4435 28.5714 28.2857V22.3809C28.5714 22.2231 28.4435 22.0952 28.2857 22.0952ZM22.381 20.6666C21.4342 20.6666 20.6667 21.4342 20.6667 22.3809V28.2857C20.6667 29.2324 21.4342 30 22.381 30H28.2857C29.2325 30 30 29.2324 30 28.2857V22.3809C30 21.4342 29.2325 20.6666 28.2857 20.6666H22.381Z" fill="#6E6EDB"/>
      </g>
      <clipPath id="clip0_1708_15131"><rect width="20" height="20" fill="white" x="10" y="10"/></clipPath>
    </symbol>

    <symbol id="icon-dataset" viewBox="0 0 40 40">
      <rect x="0.5" y="0.5" width="39" height="39" rx="19.5" fill="#FDF3F2" stroke="#F4C1BF"/>
      <g clip-path="url(#clip0_1699_15098)">
        <path fill-rule="evenodd" clip-rule="evenodd" d="M14.4161 10.8266C15.7975 10.3099 17.6784 10 19.7385 10C21.7986 10 23.6663 10.3099 25.0347 10.8271C25.7174 11.0852 26.2979 11.4031 26.7154 11.7785C26.967 12.0048 27.1718 12.2642 27.2949 12.5533C26.9668 13.2575 26.1799 13.9308 24.9469 14.4755C23.2125 15.1745 21.4454 15.5058 19.6784 15.4669L19.6692 15.4667L19.6599 15.4669C17.893 15.5046 16.1261 15.1734 14.3916 14.4757C13.22 13.9534 12.4474 13.2923 12.1095 12.5989C12.232 12.2899 12.449 12.0144 12.7173 11.7765C13.1398 11.4018 13.727 11.0843 14.4161 10.8266ZM12 13.8957V17.1139C12.2536 17.9047 13.0679 18.672 14.3916 19.2621C16.1261 19.9598 17.893 20.2909 19.6599 20.2532L19.6692 20.253L19.6784 20.2533C21.4454 20.2921 23.2125 19.9609 24.9469 19.2619C26.3882 18.6252 27.22 17.8127 27.4218 16.9806V13.8449C26.883 14.4087 26.1384 14.8843 25.2856 15.2603L25.2794 15.263L25.2731 15.2656C23.4379 16.0062 21.5569 16.3618 19.6689 16.3216C17.7811 16.3605 15.9004 16.0049 14.0652 15.2657L14.0581 15.2628L14.0512 15.2597C13.2426 14.9001 12.5279 14.4404 12 13.8957ZM12 21.9002V18.6821C12.5279 19.2267 13.2426 19.6865 14.0512 20.0461L14.0581 20.0492L14.0652 20.052C15.9004 20.7913 17.7811 21.1469 19.6689 21.1079C21.5569 21.1482 23.4379 20.7925 25.2731 20.052L25.2794 20.0494L25.2856 20.0467C26.1384 19.6707 26.883 19.1951 27.4218 18.6313V21.7669C27.22 22.599 26.3882 23.4115 24.9469 24.0482C23.2125 24.7472 21.4454 25.0785 19.6784 25.0396L19.6692 25.0394L19.6599 25.0396C17.893 25.0773 16.1261 24.7461 14.3916 24.0484C13.0679 23.4584 12.2536 22.691 12 21.9002ZM12 23.4685V26.834C12 27.4359 12.3365 27.9436 12.8169 28.3389C13.2973 28.7341 13.9612 29.0532 14.7311 29.2917C16.3569 29.7908 18.0219 30.0281 19.6901 29.9972C21.3584 30.0289 23.0226 29.7919 24.6485 29.2919L24.6554 29.2897C25.4432 29.0326 26.1145 28.7047 26.5977 28.3119C27.0784 27.9212 27.4218 27.4231 27.4218 26.834V23.4177C26.883 23.9814 26.1384 24.457 25.2856 24.833L25.2794 24.8358L25.2731 24.8383C23.4379 25.5789 21.5569 25.9346 19.6689 25.8943C17.7811 25.9333 15.9004 25.5777 14.0652 24.8384L14.0581 24.8356L14.0512 24.8325C13.2426 24.4729 12.5279 24.0131 12 23.4685Z" fill="#DF4440"/>
      </g>
      <clipPath id="clip0_1699_15098"><rect width="20" height="20" fill="white" x="10" y="10"/></clipPath>
    </symbol>

    <symbol id="icon-integration" viewBox="0 0 40 40">
      <rect x="0.5" y="0.5" width="39" height="39" rx="19.5" fill="#F5F5FD" stroke="#CFCFF3"/>
      <g clip-path="url(#clip0_1708_15120)"><path d="M14.6555 16.4652C14.6955 16.4252 14.7603 16.4252 14.8003 16.4652L23.5347 25.1997C23.5747 25.2397 23.5747 25.3045 23.5347 25.3445L21.3873 27.4919C18.9354 29.9438 14.96 29.9438 12.5081 27.4919C10.0561 25.04 9.6659 21.5888 12.1178 19.1369L14.6555 16.4652Z" fill="#6E6EDB"/>
        <path fill-rule="evenodd" clip-rule="evenodd" d="M14.1824 15.9921C14.4836 15.6908 14.9721 15.6908 15.2734 15.9921L24.0079 24.7265C24.3092 25.0278 24.3092 25.5163 24.0079 25.8176L21.8604 27.965C19.1472 30.6783 14.7482 30.6783 12.0349 27.965C9.32169 25.2518 9.32169 20.8528 12.0349 18.1395L14.1824 15.9921ZM14.7279 17.3391L12.9812 19.0858C10.7906 21.2764 10.7906 24.8281 12.9812 27.0187C15.1718 29.2094 18.7235 29.2094 20.9141 27.0187L22.6608 25.2721L14.7279 17.3391Z" fill="#6E6EDB"/>
        <path fill-rule="evenodd" clip-rule="evenodd" d="M19.6406 15.9198C19.9019 16.1811 19.9019 16.6047 19.6406 16.8661L17.4208 19.0859C17.1595 19.3472 16.7358 19.3472 16.4745 19.0859C16.2132 18.8245 16.2132 18.4009 16.4745 18.1396L18.6943 15.9198C18.9556 15.6585 19.3793 15.6585 19.6406 15.9198Z" fill="#6E6EDB"/>
        <path fill-rule="evenodd" clip-rule="evenodd" d="M24.0803 20.3593C24.3416 20.6206 24.3416 21.0443 24.0803 21.3056L21.8605 23.5254C21.5992 23.7867 21.1755 23.7867 20.9142 23.5254C20.6529 23.2641 20.6529 22.8404 20.9142 22.5791L23.134 20.3593C23.3953 20.098 23.819 20.098 24.0803 20.3593Z" fill="#6E6EDB"/>
        <path fill-rule="evenodd" clip-rule="evenodd" d="M12.9812 27.0187C13.2425 27.28 13.2425 27.7038 12.9812 27.9651L11.8713 29.075C11.61 29.3363 11.1863 29.3363 10.925 29.075C10.6637 28.8137 10.6637 28.39 10.925 28.1287L12.0349 27.0188C12.2962 26.7575 12.7199 26.7574 12.9812 27.0187Z" fill="#6E6EDB"/>
        <path fill-rule="evenodd" clip-rule="evenodd" d="M29.0749 10.9252C29.3362 11.1865 29.3362 11.6102 29.0749 11.8715L27.965 12.9814C27.7036 13.2427 27.28 13.2427 27.0187 12.9814C26.7574 12.7201 26.7574 12.2964 27.0187 12.0351L28.1286 10.9252C28.3899 10.6639 28.8135 10.6639 29.0749 10.9252Z" fill="#6E6EDB"/>
        <path fill-rule="evenodd" clip-rule="evenodd" d="M17.6389 12.5357C17.3476 12.827 17.3476 13.2993 17.6389 13.5906L26.4095 22.3612C26.7008 22.6525 27.1731 22.6525 27.4644 22.3612L27.9651 21.8606C30.6783 19.1473 30.6783 14.7483 27.9651 12.0351C25.2518 9.32181 20.8528 9.32181 18.1396 12.0351L17.6389 12.5357ZM19.004 13.0632L19.0858 12.9813C21.2765 10.7907 24.828 10.7908 27.0187 12.9814C29.2093 15.172 29.2094 18.7237 27.0188 20.9143L26.937 20.9961L19.004 13.0632Z" fill="#6E6EDB"/></g>
      <clipPath id="clip0_1708_15120"><rect width="20" height="20" fill="white" x="10" y="10"/></clipPath>
    </symbol>

    <symbol id="icon-list" viewBox="0 0 40 40">
      <rect x="0.5" y="0.5" width="39" height="39" rx="19.5" fill="#ECFDFF" stroke="#9EF7FD"/>
      <g clip-path="url(#clip0_1708_15156)">
        <rect x="16" y="28.25" width="3.75" height="13.75" rx="1.875" transform="rotate(-90 16 28.25)" fill="#03ADF3"/>
        <rect x="16" y="22" width="3.75" height="13.75" rx="1.875" transform="rotate(-90 16 22)" fill="#03ADF3"/>
        <rect x="16" y="15.75" width="3.75" height="13.75" rx="1.875" transform="rotate(-90 16 15.75)" fill="#03ADF3"/>
        <rect x="11" y="28.25" width="3.75" height="3.75" rx="1.875" transform="rotate(-90 11 28.25)" fill="#03ADF3"/>
        <rect x="11" y="22" width="3.75" height="3.75" rx="1.875" transform="rotate(-90 11 22)" fill="#03ADF3"/>
        <rect x="11" y="15.75" width="3.75" height="3.75" rx="1.875" transform="rotate(-90 11 15.75)" fill="#03ADF3"/>
      </g>
      <clipPath id="clip0_1708_15156"><rect width="20" height="20" fill="white" x="10" y="10"/></clipPath>
    </symbol>

    <symbol id="icon-page" viewBox="0 0 40 40">
      <rect x="0.5" y="0.5" width="39" height="39" rx="19.5" fill="#EEFAFE" stroke="#A8E5FF"/>
      <g clip-path="url(#clip0_1708_15108)">
        <g clip-path="url(#clip1_1708_15108)">
          <path d="M21.7237 10.1188L28.3776 16.7728V27.7518C28.3776 29.038 27.335 30.0807 26.0487 30.0807H14.0716C12.7854 30.0807 11.7427 29.038 11.7427 27.7518V12.4477C11.7427 11.1615 12.7854 10.1188 14.0716 10.1188H21.7237Z" fill="#03ADF3"/>
          <path fill-rule="evenodd" clip-rule="evenodd" d="M28.4872 16.6422H24.3317C23.0613 16.6422 21.9153 15.498 21.9153 14.2297V10.0806L28.4872 16.6422Z" fill="#A8E5FF"/>
        </g>
      </g>
      <clipPath id="clip0_1708_15108"><rect x="10" y="10" width="20" height="20" rx="2.5" fill="white"/></clipPath>
      <clipPath id="clip1_1708_15108"><rect width="20" height="20" fill="white" x="10" y="10"/></clipPath>
    </symbol>

    <symbol id="icon-process" viewBox="0 0 40 40">
      <rect x="0.5" y="0.5" width="39" height="39" rx="19.5" fill="#FEF7F0" stroke="#FCD5B5"/>
      <g clip-path="url(#clip0_1708_15109)">
        <path d="M10 11.4286C10 10.6396 10.6396 10 11.4286 10H15.7143C16.5033 10 17.1429 10.6396 17.1429 11.4286V15.7143C17.1429 16.5033 16.5033 17.1429 15.7143 17.1429H11.4286C10.6396 17.1429 10 16.5033 10 15.7143V11.4286Z" fill="#F58220"/>
        <path fill-rule="evenodd" clip-rule="evenodd" d="M15.7143 11.4286H11.4286L11.4286 15.7143H15.7143V11.4286ZM11.4286 10C10.6396 10 10 10.6396 10 11.4286V15.7143C10 16.5033 10.6396 17.1429 11.4286 17.1429H15.7143C16.5033 17.1429 17.1429 16.5033 17.1429 15.7143V11.4286C17.1429 10.6396 16.5033 10 15.7143 10H11.4286Z" fill="#F58220"/>
        <path d="M10 24.2857C10 23.4967 10.6396 22.8571 11.4286 22.8571H15.7143C16.5033 22.8571 17.1429 23.4967 17.1429 24.2857V28.5714C17.1429 29.3604 16.5033 30 15.7143 30H11.4286C10.6396 30 10 29.3604 10 28.5714V24.2857Z" fill="#F58220"/>
        <path fill-rule="evenodd" clip-rule="evenodd" d="M15.7143 24.2857H11.4286L11.4286 28.5714H15.7143V24.2857ZM11.4286 22.8571C10.6396 22.8571 10 23.4967 10 24.2857V28.5714C10 29.3604 10.6396 30 11.4286 30H15.7143C16.5033 30 17.1429 29.3604 17.1429 28.5714V24.2857C17.1429 23.4967 16.5033 22.8571 15.7143 22.8571H11.4286Z" fill="#F58220"/>
        <path d="M22.8571 11.4286C22.8571 10.6396 23.4967 10 24.2857 10H28.5714C29.3604 10 30 10.6396 30 11.4286V15.7143C30 16.5033 29.3604 17.1429 28.5714 17.1429H24.2857C23.4967 17.1429 22.8571 16.5033 22.8571 15.7143V11.4286Z" fill="#F58220"/>
        <path fill-rule="evenodd" clip-rule="evenodd" d="M28.5714 11.4286H24.2857V15.7143H28.5714V11.4286ZM24.2857 10C23.4967 10 22.8571 10.6396 22.8571 11.4286V15.7143C22.8571 16.5033 23.4967 17.1429 24.2857 17.1429H28.5714C29.3604 17.1429 30 16.5033 30 15.7143V11.4286C30 10.6396 29.3604 10 28.5714 10H24.2857Z" fill="#F58220"/>
        <path d="M22.8571 24.2857C22.8571 23.4967 23.4967 22.8571 24.2857 22.8571H28.5714C29.3604 22.8571 30 23.4967 30 24.2857V28.5714C30 29.3604 29.3604 30 28.5714 30H24.2857C23.4967 30 22.8571 29.3604 22.8571 28.5714V24.2857Z" fill="#F58220"/>
        <path fill-rule="evenodd" clip-rule="evenodd" d="M28.5714 24.2857H24.2857V28.5714H28.5714V24.2857ZM24.2857 22.8571C23.4967 22.8571 22.8571 23.4967 22.8571 24.2857V28.5714C22.8571 29.3604 23.4967 30 24.2857 30H28.5714C29.3604 30 30 29.3604 30 28.5714V24.2857C30 23.4967 29.3604 22.8571 28.5714 22.8571H24.2857Z" fill="#F58220"/>
        <path fill-rule="evenodd" clip-rule="evenodd" d="M23.6667 14.0476H16.3333V12.6191H23.6667V14.0476Z" fill="#F58220"/>
        <path fill-rule="evenodd" clip-rule="evenodd" d="M27.3809 16.3333V23.6666H25.9524V16.3333H27.3809Z" fill="#F58220"/>
        <path fill-rule="evenodd" clip-rule="evenodd" d="M14.0476 16.3333V23.6666H12.6191V16.3333H14.0476Z" fill="#F58220"/>
        <path fill-rule="evenodd" clip-rule="evenodd" d="M23.6667 28.0476H16.3333V26.619H23.6667V28.0476Z" fill="#F58220"/>
      </g>
      <clipPath id="clip0_1708_15109"><rect width="20" height="20" fill="white" x="10" y="10"/></clipPath>
    </symbol>

    <symbol id="icon-role" viewBox="0 0 40 40">
      <rect x="0.5" y="0.5" width="39" height="39" rx="19.5" fill="#FEFAEE" stroke="#FCE7AB"/>
      <path d="M27.7344 16.6747L27.2549 17.6171L28.9033 18.4569L27.4893 21.2323L25.8408 20.3925L25.1777 21.6932C26.0245 22.782 26.2199 24.3057 25.5518 25.6171C24.631 27.4236 22.42 28.1421 20.6133 27.2216C18.8066 26.301 18.0884 24.0898 19.0088 22.2831C19.677 20.9717 21.0248 20.2341 22.4033 20.2792L24.96 15.2616L27.7344 16.6747ZM17.1777 20.7499C17.3595 20.7499 17.5271 20.8487 17.6152 21.0077C17.7033 21.1667 17.6979 21.3614 17.6016 21.5155C16.6361 23.0606 16.6359 25.0212 17.6016 26.5663C17.6979 26.7204 17.7033 26.9151 17.6152 27.0741C17.5271 27.2329 17.3594 27.3309 17.1777 27.3309H13.8291C12.32 27.3309 11.0967 26.1076 11.0967 24.5985C11.0968 22.4731 12.8199 20.7499 14.9453 20.7499H17.1777ZM23.0166 22.5057C22.2186 22.0991 21.2425 22.4167 20.8359 23.2147C20.4295 24.0126 20.7461 24.9888 21.5439 25.3954C22.3419 25.802 23.319 25.4844 23.7256 24.6864C24.1319 23.8885 23.8144 22.9123 23.0166 22.5057ZM21.7266 23.6678C21.8825 23.3623 22.2568 23.2407 22.5625 23.3964C22.8683 23.5522 22.9897 23.9265 22.834 24.2323C22.6781 24.5382 22.3039 24.6605 21.998 24.5048C21.6922 24.3489 21.5707 23.9737 21.7266 23.6678ZM16.4805 12.3778C18.2977 12.3779 19.7705 13.8516 19.7705 15.6688C19.7703 17.4859 18.2976 18.9588 16.4805 18.9589C14.6633 18.9589 13.1897 17.4859 13.1895 15.6688C13.1895 13.8515 14.6631 12.3778 16.4805 12.3778Z" fill="#EEB209"/>
    </symbol>

    <symbol id="icon-sheet" viewBox="0 0 40 40">
      <rect x="0.5" y="0.5" width="39" height="39" rx="19.5" fill="#F2F9F2" stroke="#C0E3BF"/>
      <g clip-path="url(#clip0_1708_15138)">
        <path d="M10 12.5C10 11.837 10.2634 11.2011 10.7322 10.7322C11.2011 10.2634 11.837 10 12.5 10H27.5C28.163 10 28.7989 10.2634 29.2678 10.7322C29.7366 11.2011 30 11.837 30 12.5V27.5C30 28.163 29.7366 28.7989 29.2678 29.2678C28.7989 29.7366 28.163 30 27.5 30H12.5C11.837 30 11.2011 29.7366 10.7322 29.2678C10.2634 28.7989 10 28.163 10 27.5V12.5ZM28.75 15H23.75V18.75H28.75V15ZM28.75 20H23.75V23.75H28.75V20ZM28.75 25H23.75V28.75H27.5C27.8315 28.75 28.1495 28.6183 28.3839 28.3839C28.6183 28.1495 28.75 27.8315 28.75 27.5V25ZM22.5 28.75V25H17.5V28.75H22.5ZM16.25 28.75V25H11.25V27.5C11.25 27.8315 11.3817 28.1495 11.6161 28.3839C11.8505 28.6183 12.1685 28.75 12.5 28.75H16.25ZM11.25 23.75H16.25V20H11.25V23.75ZM11.25 18.75H16.25V15H11.25V18.75ZM17.5 15V18.75H22.5V15H17.5ZM22.5 20H17.5V23.75H22.5V20Z" fill="#4AA147"/>
        <rect x="11.25" y="15" width="5" height="3.75" fill="#C0E3BF"/>
        <rect x="11.25" y="20" width="5" height="3.75" fill="#C0E3BF"/>
        <path d="M11.25 25H16.25V28.75H12.25C11.6977 28.75 11.25 28.3023 11.25 27.75V25Z" fill="#C0E3BF"/>
        <path d="M11.25 12.25C11.25 11.6977 11.6977 11.25 12.25 11.25H16.25V13.75H11.25V12.25Z" fill="#C0E3BF"/>
        <path d="M17.5 11.25H22.5V13.75H17.5V11.25Z" fill="#C0E3BF"/>
        <path d="M23.75 11.25H27.75C28.3023 11.25 28.75 11.6977 28.75 12.25V13.75H23.75V11.25Z" fill="#C0E3BF"/>
      </g>
      <clipPath id="clip0_1708_15138"><rect width="20" height="20" fill="white" x="10" y="10"/></clipPath>
    </symbol>
  </defs>

  <!-- ===== Center: sun (icon + soft halo) ===== -->
  <g id="sun" transform="translate(300,300)">
    <!-- halo (mimics ::before) -->
    <circle cx="0" cy="0" r="40" fill="url(#haloGrad)" filter="url(#haloBlur)"/>
    <!-- app icon -->
    <use href="#icon-app" x="-32" y="-32" width="64" height="64"/>
  </g>

  <!-- ===== Orbits ===== -->
  <!-- Common orbit styles: dashed stroke, color pulse animation via discrete stops -->
  <!-- EMPTY ORBIT (r=80) -->
  <g id="orbit-empty">
    <circle cx="300" cy="300" r="80" fill="none" stroke="#000000" stroke-opacity="0.12" stroke-width="1" stroke-dasharray="6 8">
      <animate attributeName="stroke" dur="6s" repeatCount="indefinite" keyTimes="0;0.111;0.222;1" values="#000000;#007bff;#000000;#000000"/>
    </circle>
    <animateTransform attributeName="transform" attributeType="XML" type="rotate" from="0 300 300" to="360 300 300" dur="6s" repeatCount="indefinite"/>
  </g>

  <!-- INNER ORBIT (r=120) with 4 satellites on diagonals -->
  <g id="orbit-inner">
    <circle cx="300" cy="300" r="120" fill="none" stroke="#000000" stroke-opacity="0.12" stroke-width="1" stroke-dasharray="6 8">
      <animate attributeName="stroke" dur="9s" repeatCount="indefinite" keyTimes="0;0.333;0.444;1" values="#000000;#007bff;#000000;#000000"/>
    </circle>

    <!-- Satellite positions -->
    <!-- 45° (down-right) -->
    <g class="sat s1">
      <g>
        <use href="#icon-board" x="364.852" y="364.852" width="40" height="40"/>
      </g>
      <animateTransform attributeName="transform" type="rotate" from="0 384.852 384.852" to="-360 384.852 384.852" dur="9s" repeatCount="indefinite"/>
    </g>

    <!-- 135° (down-left) -->
    <g class="sat s2">
      <g>
        <use href="#icon-dataset" x="195.148" y="364.852" width="40" height="40"/>
      </g>
      <animateTransform attributeName="transform" type="rotate" from="0 215.148 384.852" to="-360 215.148 384.852" dur="9s" repeatCount="indefinite"/>
    </g>

    <!-- 225° (up-left) -->
    <g class="sat s3">
      <g>
        <use href="#icon-integration" x="195.148" y="195.148" width="40" height="40"/>
      </g>
      <animateTransform attributeName="transform" type="rotate" from="0 215.148 215.148" to="-360 215.148 215.148" dur="9s" repeatCount="indefinite"/>
    </g>

    <!-- 315° (up-right) -->
    <g class="sat s4">
      <g>
        <use href="#icon-list" x="364.852" y="195.148" width="40" height="40"/>
      </g>
      <animateTransform attributeName="transform" type="rotate" from="0 384.852 215.148" to="-360 384.852 215.148" dur="9s" repeatCount="indefinite"/>
    </g>

    <!-- Orbit rotation -->
    <animateTransform attributeName="transform" attributeType="XML" type="rotate" from="0 300 300" to="360 300 300" dur="9s" repeatCount="indefinite"/>
  </g>

  <!-- OUTER ORBIT (r=164) with 4 satellites at cardinals -->
  <g id="orbit-outer">
    <circle cx="300" cy="300" r="164" fill="none" stroke="#000000" stroke-opacity="0.12" stroke-width="1" stroke-dasharray="6 8">
      <animate attributeName="stroke" dur="12s" repeatCount="indefinite" keyTimes="0;0.555;0.666;1" values="#000000;#007bff;#000000;#000000"/>
    </circle>

    <!-- Top (angle -90°) -->
    <g class="sat o1">
      <g>
        <use href="#icon-page" x="280" y="116" width="40" height="40"/>
      </g>
      <animateTransform attributeName="transform" type="rotate" from="0 300 136" to="-360 300 136" dur="12s" repeatCount="indefinite"/>
    </g>

    <!-- Right (0°) -->
    <g class="sat o2">
      <g>
        <use href="#icon-process" x="444" y="280" width="40" height="40"/>
      </g>
      <animateTransform attributeName="transform" type="rotate" from="0 464 300" to="-360 464 300" dur="12s" repeatCount="indefinite"/>
    </g>

    <!-- Bottom (90°) -->
    <g class="sat o3">
      <g>
        <use href="#icon-role" x="280" y="444" width="40" height="40"/>
      </g>
      <animateTransform attributeName="transform" type="rotate" from="0 300 464" to="-360 300 464" dur="12s" repeatCount="indefinite"/>
    </g>

    <!-- Left (180°) -->
    <g class="sat o4">
      <g>
        <use href="#icon-sheet" x="116" y="280" width="40" height="40"/>
      </g>
      <animateTransform attributeName="transform" type="rotate" from="0 136 300" to="-360 136 300" dur="12s" repeatCount="indefinite"/>
    </g>

    <!-- Orbit rotation -->
    <animateTransform attributeName="transform" attributeType="XML" type="rotate" from="0 300 300" to="360 300 300" dur="12s" repeatCount="indefinite"/>
  </g>
</svg>
