<svg width="320" height="240" viewBox="0 0 320 240" fill="none" xmlns="http://www.w3.org/2000/svg">
<style>
.vl{opacity:0;animation-duration:36s;animation-timing-function:cubic-bezier(.4,0,.2,1);animation-iteration-count:infinite;animation-fill-mode:both}
@keyframes p1t{0%,0%{opacity:0}1.5%{opacity:1}28%{opacity:1}32%{opacity:0}100%{opacity:0}}
@keyframes p1s{0%,1.5%{opacity:0}3%{opacity:1}28%{opacity:1}32%{opacity:0}100%{opacity:0}}
@keyframes p1l{0%,3%{opacity:0}4%{opacity:1}28%{opacity:1}32%{opacity:0}100%{opacity:0}}
@keyframes p1k1{0%,4%{opacity:0}5.5%{opacity:1}28%{opacity:1}32%{opacity:0}100%{opacity:0}}
@keyframes p1k2{0%,5%{opacity:0}6.5%{opacity:1}28%{opacity:1}32%{opacity:0}100%{opacity:0}}
@keyframes p1k3{0%,6%{opacity:0}7.5%{opacity:1}28%{opacity:1}32%{opacity:0}100%{opacity:0}}
@keyframes p1k4{0%,7%{opacity:0}8.5%{opacity:1}28%{opacity:1}32%{opacity:0}100%{opacity:0}}
@keyframes p1f{0%,8.5%{opacity:0}10%{opacity:1}28%{opacity:1}32%{opacity:0}100%{opacity:0}}
@keyframes p1b1{0%,10%{opacity:0;transform:scaleY(0)}11.5%{opacity:1;transform:scaleY(0)}13.5%{opacity:1;transform:scaleY(1)}28%{opacity:1;transform:scaleY(1)}32%{opacity:0;transform:scaleY(1)}100%{opacity:0}}
@keyframes p1b2{0%,12%{opacity:0;transform:scaleY(0)}13.5%{opacity:1;transform:scaleY(0)}15.5%{opacity:1;transform:scaleY(1)}28%{opacity:1;transform:scaleY(1)}32%{opacity:0;transform:scaleY(1)}100%{opacity:0}}
@keyframes p1b3{0%,14%{opacity:0;transform:scaleY(0)}15.5%{opacity:1;transform:scaleY(0)}17.5%{opacity:1;transform:scaleY(1)}28%{opacity:1;transform:scaleY(1)}32%{opacity:0;transform:scaleY(1)}100%{opacity:0}}
@keyframes p1b4{0%,16%{opacity:0;transform:scaleY(0)}17.5%{opacity:1;transform:scaleY(0)}19.5%{opacity:1;transform:scaleY(1)}28%{opacity:1;transform:scaleY(1)}32%{opacity:0;transform:scaleY(1)}100%{opacity:0}}
@keyframes p1b5{0%,18%{opacity:0;transform:scaleY(0)}19.5%{opacity:1;transform:scaleY(0)}21.5%{opacity:1;transform:scaleY(1)}28%{opacity:1;transform:scaleY(1)}32%{opacity:0;transform:scaleY(1)}100%{opacity:0}}
@keyframes p1bd{0%,21%{opacity:0}22.5%{opacity:1}28%{opacity:1}32%{opacity:0}100%{opacity:0}}
@keyframes p1r3{0%,21.5%{opacity:0}23%{opacity:1}28%{opacity:1}32%{opacity:0}100%{opacity:0}}
@keyframes p2t{0%,33%{opacity:0}34.5%{opacity:1}61%{opacity:1}65%{opacity:0}100%{opacity:0}}
@keyframes p2s{0%,34.5%{opacity:0}36%{opacity:1}61%{opacity:1}65%{opacity:0}100%{opacity:0}}
@keyframes p2l{0%,36%{opacity:0}37%{opacity:1}61%{opacity:1}65%{opacity:0}100%{opacity:0}}
@keyframes p2k1{0%,37%{opacity:0}38.5%{opacity:1}61%{opacity:1}65%{opacity:0}100%{opacity:0}}
@keyframes p2k2{0%,38%{opacity:0}39.5%{opacity:1}61%{opacity:1}65%{opacity:0}100%{opacity:0}}
@keyframes p2k3{0%,39%{opacity:0}40.5%{opacity:1}61%{opacity:1}65%{opacity:0}100%{opacity:0}}
@keyframes p2k4{0%,40%{opacity:0}41.5%{opacity:1}61%{opacity:1}65%{opacity:0}100%{opacity:0}}
@keyframes p2f{0%,41.5%{opacity:0}43%{opacity:1}61%{opacity:1}65%{opacity:0}100%{opacity:0}}
@keyframes p2r1{0%,43%{opacity:0}44.5%{opacity:1}61%{opacity:1}65%{opacity:0}100%{opacity:0}}
@keyframes p2r2{0%,44.5%{opacity:0}46%{opacity:1}61%{opacity:1}65%{opacity:0}100%{opacity:0}}
@keyframes p2r3{0%,46%{opacity:0}47.5%{opacity:1}61%{opacity:1}65%{opacity:0}100%{opacity:0}}
@keyframes p2r4{0%,47.5%{opacity:0}49%{opacity:1}61%{opacity:1}65%{opacity:0}100%{opacity:0}}
@keyframes p2r5{0%,49%{opacity:0}50.5%{opacity:1}61%{opacity:1}65%{opacity:0}100%{opacity:0}}
@keyframes p2r6{0%,50.5%{opacity:0}52%{opacity:1}61%{opacity:1}65%{opacity:0}100%{opacity:0}}
@keyframes p2r7{0%,52%{opacity:0}53.5%{opacity:1}61%{opacity:1}65%{opacity:0}100%{opacity:0}}
@keyframes p3t{0%,66%{opacity:0}67.5%{opacity:1}94%{opacity:1}98%{opacity:0}100%{opacity:0}}
@keyframes p3s{0%,67.5%{opacity:0}69%{opacity:1}94%{opacity:1}98%{opacity:0}100%{opacity:0}}
@keyframes p3l{0%,69%{opacity:0}70%{opacity:1}94%{opacity:1}98%{opacity:0}100%{opacity:0}}
@keyframes p3k1{0%,70%{opacity:0}71.5%{opacity:1}94%{opacity:1}98%{opacity:0}100%{opacity:0}}
@keyframes p3k2{0%,71%{opacity:0}72.5%{opacity:1}94%{opacity:1}98%{opacity:0}100%{opacity:0}}
@keyframes p3k3{0%,72%{opacity:0}73.5%{opacity:1}94%{opacity:1}98%{opacity:0}100%{opacity:0}}
@keyframes p3k4{0%,73%{opacity:0}74.5%{opacity:1}94%{opacity:1}98%{opacity:0}100%{opacity:0}}
@keyframes p3c1{0%,74.5%{opacity:0}76%{opacity:1}94%{opacity:1}98%{opacity:0}100%{opacity:0}}
@keyframes p3c2{0%,76%{opacity:0}77.5%{opacity:1}94%{opacity:1}98%{opacity:0}100%{opacity:0}}
@keyframes p3c3{0%,77.5%{opacity:0}79%{opacity:1}94%{opacity:1}98%{opacity:0}100%{opacity:0}}
@keyframes p3c4{0%,79%{opacity:0}80.5%{opacity:1}94%{opacity:1}98%{opacity:0}100%{opacity:0}}
@keyframes p3c5{0%,80.5%{opacity:0}82%{opacity:1}94%{opacity:1}98%{opacity:0}100%{opacity:0}}
@keyframes shimmer{from{transform:translateX(-320px)}to{transform:translateX(320px)}}
.sh{animation:shimmer 2s linear infinite}
.bar{transform-box:fill-box;transform-origin:center bottom}
</style>
<defs>
  <linearGradient id="sg" x1="0" y1="0" x2="1" y2="0"><stop offset="0%" stop-color="#F5F5FD"/><stop offset="45%" stop-color="#EAEAF9"/><stop offset="55%" stop-color="#EAEAF9"/><stop offset="100%" stop-color="#F5F5FD"/></linearGradient>
  <pattern id="sp" x="0" y="0" width="320" height="1" patternUnits="userSpaceOnUse"><rect width="320" height="240" fill="url(#sg)" class="sh"/></pattern>
</defs>
<rect x=".5" y=".5" width="319" height="239" rx="16" fill="white" fill-opacity=".5" stroke="#CFCFF3" stroke-width=".9"/>
<rect class="vl" style="animation-name:p1t" x="32" y="25" width="110" height="9" rx="2.5" fill="#CFCFF3"/>
<rect class="vl" style="animation-name:p1s" x="32" y="38" width="170" height="5.5" rx="2" fill="url(#sp)"/>
<line class="vl" style="animation-name:p1l" x1="32" y1="51" x2="288" y2="51" stroke="#E2E2F8" stroke-width=".8"/>
<g class="vl" style="animation-name:p1k1"><rect x="32" y="57" width="59" height="28" rx="4" fill="#6E6EDB" fill-opacity=".07" stroke="#9E9EE7" stroke-width=".8"/><rect x="38" y="62" width="30" height="7" rx="2" fill="#6E6EDB" fill-opacity=".25"/><rect x="38" y="72" width="40" height="4" rx="1.5" fill="url(#sp)"/></g>
<g class="vl" style="animation-name:p1k2"><rect x="97" y="57" width="59" height="28" rx="4" fill="#6E6EDB" fill-opacity=".07" stroke="#9E9EE7" stroke-width=".8"/><rect x="103" y="62" width="30" height="7" rx="2" fill="#6E6EDB" fill-opacity=".25"/><rect x="103" y="72" width="40" height="4" rx="1.5" fill="url(#sp)"/></g>
<g class="vl" style="animation-name:p1k3"><rect x="162" y="57" width="59" height="28" rx="4" fill="#6E6EDB" fill-opacity=".07" stroke="#9E9EE7" stroke-width=".8"/><rect x="168" y="62" width="30" height="7" rx="2" fill="#6E6EDB" fill-opacity=".25"/><rect x="168" y="72" width="40" height="4" rx="1.5" fill="url(#sp)"/></g>
<g class="vl" style="animation-name:p1k4"><rect x="227" y="57" width="59" height="28" rx="4" fill="#6E6EDB" fill-opacity=".07" stroke="#9E9EE7" stroke-width=".8"/><rect x="233" y="62" width="30" height="7" rx="2" fill="#6E6EDB" fill-opacity=".25"/><rect x="233" y="72" width="40" height="4" rx="1.5" fill="url(#sp)"/></g>
<g class="vl" style="animation-name:p1f"><rect x="32" y="91" width="256" height="52" rx="4" fill="none" stroke="#9E9EE7" stroke-width=".8"/><line x1="48" y1="137" x2="288" y2="137" stroke="#9E9EE7" stroke-width=".7"/><line x1="48" y1="97" x2="48" y2="137" stroke="#E2E2F8" stroke-width=".7"/><line x1="48" y1="117" x2="288" y2="117" stroke="#E2E2F8" stroke-width=".4" stroke-dasharray="3 3"/><line x1="48" y1="127" x2="288" y2="127" stroke="#E2E2F8" stroke-width=".4" stroke-dasharray="3 3"/><rect x="34" y="115" width="10" height="3" rx="1" fill="#E2E2F8"/><rect x="34" y="125" width="10" height="3" rx="1" fill="#E2E2F8"/></g>
<rect class="bar vl" style="animation-name:p1b1" x="57" y="105" width="22" height="32" rx="2" fill="#9E9EE7" fill-opacity=".55"/>
<rect class="bar vl" style="animation-name:p1b2" x="91" y="93" width="22" height="44" rx="2" fill="#6E6EDB" fill-opacity=".7"/>
<rect class="bar vl" style="animation-name:p1b3" x="125" y="115" width="22" height="22" rx="2" fill="#9E9EE7" fill-opacity=".5"/>
<rect class="bar vl" style="animation-name:p1b4" x="159" y="99" width="22" height="38" rx="2" fill="#6E6EDB" fill-opacity=".65"/>
<rect class="bar vl" style="animation-name:p1b5" x="193" y="109" width="22" height="28" rx="2" fill="#9E9EE7" fill-opacity=".45"/>
<g class="vl" style="animation-name:p1bd"><circle cx="68" cy="103" r="2" fill="#6E6EDB"/><circle cx="102" cy="91" r="2" fill="#6E6EDB"/><circle cx="136" cy="113" r="2" fill="#6E6EDB"/><circle cx="170" cy="97" r="2" fill="#6E6EDB"/><circle cx="204" cy="107" r="2" fill="#6E6EDB"/><rect x="232" y="95" width="48" height="5" rx="1.5" fill="#CFCFF3"/><rect x="232" y="103" width="40" height="4" rx="1.5" fill="url(#sp)"/><rect x="232" y="110" width="44" height="4" rx="1.5" fill="url(#sp)"/></g>
<g class="vl" style="animation-name:p1r3"><rect x="32" y="149" width="122" height="52" rx="4" fill="none" stroke="#9E9EE7" stroke-width=".8"/><path d="M80 175 L80 159 A16 16 0 0 1 96 175 Z" fill="#6E6EDB" fill-opacity=".75"/><path d="M80 175 L96 175 A16 16 0 0 1 80 191 Z" fill="#6E6EDB" fill-opacity=".5"/><path d="M80 175 L80 191 A16 16 0 0 1 64 175 Z" fill="#9E9EE7" fill-opacity=".6"/><path d="M80 175 L64 175 A16 16 0 0 1 80 159 Z" fill="#9E9EE7" fill-opacity=".35"/><rect x="104" y="157" width="8" height="4" rx="1" fill="#6E6EDB" fill-opacity=".75"/><rect x="114" y="157" width="34" height="4" rx="1.5" fill="url(#sp)"/><rect x="104" y="164" width="8" height="4" rx="1" fill="#6E6EDB" fill-opacity=".5"/><rect x="114" y="164" width="28" height="4" rx="1.5" fill="url(#sp)"/><rect x="104" y="171" width="8" height="4" rx="1" fill="#9E9EE7" fill-opacity=".6"/><rect x="114" y="171" width="30" height="4" rx="1.5" fill="url(#sp)"/><rect x="104" y="178" width="8" height="4" rx="1" fill="#9E9EE7" fill-opacity=".35"/><rect x="114" y="178" width="26" height="4" rx="1.5" fill="url(#sp)"/><rect x="160" y="149" width="128" height="52" rx="4" fill="none" stroke="#9E9EE7" stroke-width=".8"/><rect x="160" y="149" width="128" height="11" rx="4" fill="#6E6EDB" fill-opacity=".1"/><line x1="160" y1="160" x2="288" y2="160" stroke="#9E9EE7" stroke-width=".7"/><rect x="165" y="152" width="36" height="4" rx="1.5" fill="#9E9EE7" opacity=".7"/><rect x="218" y="152" width="28" height="4" rx="1.5" fill="#9E9EE7" opacity=".5"/><line x1="213" y1="149" x2="213" y2="201" stroke="#E2E2F8" stroke-width=".6"/><line x1="160" y1="170" x2="288" y2="170" stroke="#E2E2F8" stroke-width=".5"/><rect x="165" y="162" width="38" height="4" rx="1.5" fill="url(#sp)"/><rect x="218" y="162" width="26" height="4" rx="1.5" fill="url(#sp)"/><line x1="160" y1="180" x2="288" y2="180" stroke="#E2E2F8" stroke-width=".5"/><rect x="165" y="172" width="30" height="4" rx="1.5" fill="url(#sp)"/><rect x="218" y="172" width="30" height="4" rx="1.5" fill="url(#sp)"/><line x1="160" y1="190" x2="288" y2="190" stroke="#E2E2F8" stroke-width=".5"/><rect x="165" y="182" width="42" height="4" rx="1.5" fill="url(#sp)"/><rect x="218" y="182" width="22" height="4" rx="1.5" fill="url(#sp)"/><rect x="165" y="192" width="34" height="4" rx="1.5" fill="url(#sp)"/><rect x="218" y="192" width="28" height="4" rx="1.5" fill="url(#sp)"/></g>
<rect class="vl" style="animation-name:p2t" x="32" y="25" width="90" height="9" rx="2.5" fill="#CFCFF3"/>
<rect class="vl" style="animation-name:p2s" x="32" y="38" width="150" height="5.5" rx="2" fill="url(#sp)"/>
<line class="vl" style="animation-name:p2l" x1="32" y1="51" x2="288" y2="51" stroke="#E2E2F8" stroke-width=".8"/>
<g class="vl" style="animation-name:p2k1"><rect x="32" y="57" width="59" height="28" rx="4" fill="#6E6EDB" fill-opacity=".07" stroke="#9E9EE7" stroke-width=".8"/><rect x="38" y="62" width="30" height="7" rx="2" fill="#6E6EDB" fill-opacity=".25"/><rect x="38" y="72" width="40" height="4" rx="1.5" fill="url(#sp)"/></g>
<g class="vl" style="animation-name:p2k2"><rect x="97" y="57" width="59" height="28" rx="4" fill="#6E6EDB" fill-opacity=".07" stroke="#9E9EE7" stroke-width=".8"/><rect x="103" y="62" width="30" height="7" rx="2" fill="#6E6EDB" fill-opacity=".25"/><rect x="103" y="72" width="40" height="4" rx="1.5" fill="url(#sp)"/></g>
<g class="vl" style="animation-name:p2k3"><rect x="162" y="57" width="59" height="28" rx="4" fill="#6E6EDB" fill-opacity=".07" stroke="#9E9EE7" stroke-width=".8"/><rect x="168" y="62" width="30" height="7" rx="2" fill="#6E6EDB" fill-opacity=".25"/><rect x="168" y="72" width="40" height="4" rx="1.5" fill="url(#sp)"/></g>
<g class="vl" style="animation-name:p2k4"><rect x="227" y="57" width="59" height="28" rx="4" fill="#6E6EDB" fill-opacity=".07" stroke="#9E9EE7" stroke-width=".8"/><rect x="233" y="62" width="30" height="7" rx="2" fill="#6E6EDB" fill-opacity=".25"/><rect x="233" y="72" width="40" height="4" rx="1.5" fill="url(#sp)"/></g>
<g class="vl" style="animation-name:p2f"><rect x="32" y="91" width="256" height="110" rx="4" fill="none" stroke="#9E9EE7" stroke-width=".8"/><rect x="32" y="91" width="256" height="13" rx="4" fill="#6E6EDB" fill-opacity=".1"/><line x1="32" y1="104" x2="288" y2="104" stroke="#9E9EE7" stroke-width=".7"/><rect x="38" y="94.5" width="60" height="4.5" rx="1.5" fill="#9E9EE7" opacity=".75"/><rect x="120" y="94.5" width="44" height="4.5" rx="1.5" fill="#9E9EE7" opacity=".55"/><rect x="194" y="94.5" width="44" height="4.5" rx="1.5" fill="#9E9EE7" opacity=".55"/><rect x="258" y="94.5" width="24" height="4.5" rx="1.5" fill="#9E9EE7" opacity=".45"/><line x1="114" y1="91" x2="114" y2="201" stroke="#E2E2F8" stroke-width=".6"/><line x1="188" y1="91" x2="188" y2="201" stroke="#E2E2F8" stroke-width=".6"/><line x1="252" y1="91" x2="252" y2="201" stroke="#E2E2F8" stroke-width=".6"/></g>
<g class="vl" style="animation-name:p2r1"><line x1="32" y1="117" x2="288" y2="117" stroke="#E2E2F8" stroke-width=".5"/><rect x="38" y="107" width="52" height="4" rx="1.5" fill="url(#sp)"/><rect x="120" y="107" width="38" height="4" rx="1.5" fill="url(#sp)"/><rect x="194" y="107" width="40" height="4" rx="1.5" fill="url(#sp)"/><rect x="258" y="107" width="20" height="4" rx="1.5" fill="url(#sp)"/></g>
<g class="vl" style="animation-name:p2r2"><line x1="32" y1="130" x2="288" y2="130" stroke="#E2E2F8" stroke-width=".5"/><rect x="38" y="120" width="44" height="4" rx="1.5" fill="url(#sp)"/><rect x="120" y="120" width="44" height="4" rx="1.5" fill="url(#sp)"/><rect x="194" y="120" width="36" height="4" rx="1.5" fill="url(#sp)"/><rect x="258" y="120" width="22" height="4" rx="1.5" fill="url(#sp)"/></g>
<g class="vl" style="animation-name:p2r3"><line x1="32" y1="143" x2="288" y2="143" stroke="#E2E2F8" stroke-width=".5"/><rect x="38" y="133" width="58" height="4" rx="1.5" fill="url(#sp)"/><rect x="120" y="133" width="36" height="4" rx="1.5" fill="url(#sp)"/><rect x="194" y="133" width="44" height="4" rx="1.5" fill="url(#sp)"/><rect x="258" y="133" width="18" height="4" rx="1.5" fill="url(#sp)"/></g>
<g class="vl" style="animation-name:p2r4"><line x1="32" y1="156" x2="288" y2="156" stroke="#E2E2F8" stroke-width=".5"/><rect x="38" y="146" width="48" height="4" rx="1.5" fill="url(#sp)"/><rect x="120" y="146" width="42" height="4" rx="1.5" fill="url(#sp)"/><rect x="194" y="146" width="38" height="4" rx="1.5" fill="url(#sp)"/><rect x="258" y="146" width="24" height="4" rx="1.5" fill="url(#sp)"/></g>
<g class="vl" style="animation-name:p2r5"><line x1="32" y1="169" x2="288" y2="169" stroke="#E2E2F8" stroke-width=".5"/><rect x="38" y="159" width="56" height="4" rx="1.5" fill="url(#sp)"/><rect x="120" y="159" width="32" height="4" rx="1.5" fill="url(#sp)"/><rect x="194" y="159" width="42" height="4" rx="1.5" fill="url(#sp)"/><rect x="258" y="159" width="20" height="4" rx="1.5" fill="url(#sp)"/></g>
<g class="vl" style="animation-name:p2r6"><line x1="32" y1="182" x2="288" y2="182" stroke="#E2E2F8" stroke-width=".5"/><rect x="38" y="172" width="40" height="4" rx="1.5" fill="url(#sp)"/><rect x="120" y="172" width="46" height="4" rx="1.5" fill="url(#sp)"/><rect x="194" y="172" width="34" height="4" rx="1.5" fill="url(#sp)"/><rect x="258" y="172" width="22" height="4" rx="1.5" fill="url(#sp)"/></g>
<g class="vl" style="animation-name:p2r7"><rect x="38" y="185" width="52" height="4" rx="1.5" fill="url(#sp)"/><rect x="120" y="185" width="38" height="4" rx="1.5" fill="url(#sp)"/><rect x="194" y="185" width="40" height="4" rx="1.5" fill="url(#sp)"/><rect x="258" y="185" width="20" height="4" rx="1.5" fill="url(#sp)"/></g>
<rect class="vl" style="animation-name:p3t" x="32" y="25" width="100" height="9" rx="2.5" fill="#CFCFF3"/>
<rect class="vl" style="animation-name:p3s" x="32" y="38" width="160" height="5.5" rx="2" fill="url(#sp)"/>
<line class="vl" style="animation-name:p3l" x1="32" y1="51" x2="288" y2="51" stroke="#E2E2F8" stroke-width=".8"/>
<g class="vl" style="animation-name:p3k1"><rect x="32" y="57" width="59" height="28" rx="4" fill="#6E6EDB" fill-opacity=".07" stroke="#9E9EE7" stroke-width=".8"/><rect x="38" y="62" width="30" height="7" rx="2" fill="#6E6EDB" fill-opacity=".25"/><rect x="38" y="72" width="40" height="4" rx="1.5" fill="url(#sp)"/></g>
<g class="vl" style="animation-name:p3k2"><rect x="97" y="57" width="59" height="28" rx="4" fill="#6E6EDB" fill-opacity=".07" stroke="#9E9EE7" stroke-width=".8"/><rect x="103" y="62" width="30" height="7" rx="2" fill="#6E6EDB" fill-opacity=".25"/><rect x="103" y="72" width="40" height="4" rx="1.5" fill="url(#sp)"/></g>
<g class="vl" style="animation-name:p3k3"><rect x="162" y="57" width="59" height="28" rx="4" fill="#6E6EDB" fill-opacity=".07" stroke="#9E9EE7" stroke-width=".8"/><rect x="168" y="62" width="30" height="7" rx="2" fill="#6E6EDB" fill-opacity=".25"/><rect x="168" y="72" width="40" height="4" rx="1.5" fill="url(#sp)"/></g>
<g class="vl" style="animation-name:p3k4"><rect x="227" y="57" width="59" height="28" rx="4" fill="#6E6EDB" fill-opacity=".07" stroke="#9E9EE7" stroke-width=".8"/><rect x="233" y="62" width="30" height="7" rx="2" fill="#6E6EDB" fill-opacity=".25"/><rect x="233" y="72" width="40" height="4" rx="1.5" fill="url(#sp)"/></g>
<g class="vl" style="animation-name:p3c1"><rect x="32" y="91" width="256" height="20" rx="4" fill="#6E6EDB" fill-opacity=".07" stroke="#9E9EE7" stroke-width=".8"/><circle cx="44" cy="101" r="4" fill="#9E9EE7" opacity=".55"/><rect x="53" y="96" width="80" height="4.5" rx="1.5" fill="#CFCFF3"/><rect x="53" y="103" width="56" height="3.5" rx="1.5" fill="url(#sp)"/><rect x="252" y="97" width="32" height="6" rx="3" fill="#6E6EDB" fill-opacity=".15" stroke="#9E9EE7" stroke-width=".7"/></g>
<g class="vl" style="animation-name:p3c2"><rect x="32" y="116" width="256" height="20" rx="4" fill="#6E6EDB" fill-opacity=".07" stroke="#9E9EE7" stroke-width=".8"/><circle cx="44" cy="126" r="4" fill="#9E9EE7" opacity=".55"/><rect x="53" y="121" width="96" height="4.5" rx="1.5" fill="#CFCFF3"/><rect x="53" y="128" width="64" height="3.5" rx="1.5" fill="url(#sp)"/><rect x="252" y="122" width="32" height="6" rx="3" fill="#6E6EDB" fill-opacity=".15" stroke="#9E9EE7" stroke-width=".7"/></g>
<g class="vl" style="animation-name:p3c3"><rect x="32" y="141" width="256" height="20" rx="4" fill="#6E6EDB" fill-opacity=".07" stroke="#9E9EE7" stroke-width=".8"/><circle cx="44" cy="151" r="4" fill="#9E9EE7" opacity=".55"/><rect x="53" y="146" width="72" height="4.5" rx="1.5" fill="#CFCFF3"/><rect x="53" y="153" width="48" height="3.5" rx="1.5" fill="url(#sp)"/><rect x="252" y="147" width="32" height="6" rx="3" fill="#6E6EDB" fill-opacity=".15" stroke="#9E9EE7" stroke-width=".7"/></g>
<g class="vl" style="animation-name:p3c4"><rect x="32" y="166" width="256" height="20" rx="4" fill="#6E6EDB" fill-opacity=".07" stroke="#9E9EE7" stroke-width=".8"/><circle cx="44" cy="176" r="4" fill="#9E9EE7" opacity=".55"/><rect x="53" y="171" width="88" height="4.5" rx="1.5" fill="#CFCFF3"/><rect x="53" y="178" width="60" height="3.5" rx="1.5" fill="url(#sp)"/><rect x="252" y="172" width="32" height="6" rx="3" fill="#6E6EDB" fill-opacity=".15" stroke="#9E9EE7" stroke-width=".7"/></g>
<g class="vl" style="animation-name:p3c5"><rect x="32" y="191" width="256" height="20" rx="4" fill="#6E6EDB" fill-opacity=".07" stroke="#9E9EE7" stroke-width=".8"/><circle cx="44" cy="201" r="4" fill="#9E9EE7" opacity=".55"/><rect x="53" y="196" width="64" height="4.5" rx="1.5" fill="#CFCFF3"/><rect x="53" y="203" width="44" height="3.5" rx="1.5" fill="url(#sp)"/><rect x="252" y="197" width="32" height="6" rx="3" fill="#6E6EDB" fill-opacity=".15" stroke="#9E9EE7" stroke-width=".7"/></g>
<rect x="263" y="210" width="40" height="24" rx="12" fill="white" stroke="#E2E2F8" stroke-width=".9"/>
<path d="M280.3 216l.9 2.3c.4 1 1.3 1.9 2.4 2.2l2.6.9-2.6.8c-1.1.4-2 1.2-2.4 2.3l-.9 2.3-.9-2.3c-.4-1-1.3-1.8-2.4-2.2l-2.5-.9 2.5-.8c1.1-.4 2-1.2 2.4-2.3z" fill="#6E6EDB" opacity=".8"><animate attributeName="opacity" values=".5;1;.5" dur="1.2s" repeatCount="indefinite"/></path>
<path d="M288 222l.1.3c.4 1 1.2 1.8 2.3 2.1l.3.1-.3.1c-1.1.4-1.9 1.1-2.3 2.1l-.1.3-.1-.3c-.4-1-1.2-1.8-2.3-2.1l-.3-.1.3-.1c1.1-.4 1.9-1.1 2.3-2.1z" fill="#6E6EDB" opacity=".8"><animate attributeName="opacity" values=".5;1;.5" dur="1.2s" begin=".4s" repeatCount="indefinite"/></path>
</svg>
