<svg width="320" height="240" viewBox="0 0 320 240" fill="none" xmlns="http://www.w3.org/2000/svg">
<style>
.vl{opacity:0;animation-duration:36s;animation-timing-function:cubic-bezier(.4,0,.2,1);animation-iteration-count:infinite;animation-fill-mode:both}

/* ── PAGE 1: Report page ─────────────────────────────── */
/* header */
@keyframes p1t{0%,1%{opacity:0}2.5%{opacity:1}28%{opacity:1}31%{opacity:0}100%{opacity:0}}
@keyframes p1s{0%,2.5%{opacity:0}4%{opacity:1}28%{opacity:1}31%{opacity:0}100%{opacity:0}}
@keyframes p1l{0%,4%{opacity:0}5.5%{opacity:1}28%{opacity:1}31%{opacity:0}100%{opacity:0}}
/* 4 KPI cards together */
@keyframes p1k{0%,5.5%{opacity:0}7%{opacity:1}28%{opacity:1}31%{opacity:0}100%{opacity:0}}
/* bar chart frame → bars 1-5 → dots */
@keyframes p1fr{0%,7%{opacity:0}8.5%{opacity:1}28%{opacity:1}31%{opacity:0}100%{opacity:0}}
@keyframes p1bars{0%,8.5%{opacity:0;transform:scaleY(0)}10.5%{opacity:1;transform:scaleY(1)}28%{opacity:1}31%{opacity:0}100%{opacity:0}}
@keyframes p1bd{0%,10.5%{opacity:0}12%{opacity:1}28%{opacity:1}31%{opacity:0}100%{opacity:0}}
@keyframes p1donut{0%,12%{opacity:0}13.5%{opacity:1}28%{opacity:1}31%{opacity:0}100%{opacity:0}}
@keyframes p1table{0%,14%{opacity:0}15.5%{opacity:1}28%{opacity:1}31%{opacity:0}100%{opacity:0}}
/* bottom row: donut card + mini table */
@keyframes p1r{0%,22%{opacity:0}23.5%{opacity:1}28%{opacity:1}31%{opacity:0}100%{opacity:0}}

/* ── PAGE 2: Table page ──────────────────────────────── */
@keyframes p2t{0%,33%{opacity:0}34.5%{opacity:1}60%{opacity:1}63%{opacity:0}100%{opacity:0}}
@keyframes p2s{0%,34.5%{opacity:0}36%{opacity:1}60%{opacity:1}63%{opacity:0}100%{opacity:0}}
@keyframes p2l{0%,36%{opacity:0}37%{opacity:1}60%{opacity:1}63%{opacity:0}100%{opacity:0}}
@keyframes p2k{0%,37%{opacity:0}38.5%{opacity:1}60%{opacity:1}63%{opacity:0}100%{opacity:0}}
@keyframes p2fr{0%,38.5%{opacity:0}40%{opacity:1}60%{opacity:1}63%{opacity:0}100%{opacity:0}}
@keyframes p2r1{0%,40%{opacity:0}41.5%{opacity:1}60%{opacity:1}63%{opacity:0}100%{opacity:0}}
@keyframes p2r2{0%,41.5%{opacity:0}43%{opacity:1}60%{opacity:1}63%{opacity:0}100%{opacity:0}}
@keyframes p2r3{0%,43%{opacity:0}44.5%{opacity:1}60%{opacity:1}63%{opacity:0}100%{opacity:0}}
@keyframes p2r4{0%,44.5%{opacity:0}46%{opacity:1}60%{opacity:1}63%{opacity:0}100%{opacity:0}}
@keyframes p2r5{0%,46%{opacity:0}47.5%{opacity:1}60%{opacity:1}63%{opacity:0}100%{opacity:0}}
@keyframes p2r6{0%,47.5%{opacity:0}49%{opacity:1}60%{opacity:1}63%{opacity:0}100%{opacity:0}}
@keyframes p2r7{0%,49%{opacity:0}50.5%{opacity:1}60%{opacity:1}63%{opacity:0}100%{opacity:0}}
@keyframes p2r8{0%,50.5%{opacity:0}52%{opacity:1}60%{opacity:1}63%{opacity:0}100%{opacity:0}}

/* ── PAGE 3: List page ───────────────────────────────── */
@keyframes p3t{0%,65%{opacity:0}66.5%{opacity:1}94%{opacity:1}97%{opacity:0}100%{opacity:0}}
@keyframes p3s{0%,66.5%{opacity:0}68%{opacity:1}94%{opacity:1}97%{opacity:0}100%{opacity:0}}
@keyframes p3l{0%,68%{opacity:0}69%{opacity:1}94%{opacity:1}97%{opacity:0}100%{opacity:0}}
@keyframes p3c1{0%,69%{opacity:0}70.5%{opacity:1}94%{opacity:1}97%{opacity:0}100%{opacity:0}}
@keyframes p3c2{0%,70.5%{opacity:0}72%{opacity:1}94%{opacity:1}97%{opacity:0}100%{opacity:0}}
@keyframes p3c3{0%,72%{opacity:0}73.5%{opacity:1}94%{opacity:1}97%{opacity:0}100%{opacity:0}}
@keyframes p3c4{0%,73.5%{opacity:0}75%{opacity:1}94%{opacity:1}97%{opacity:0}100%{opacity:0}}
@keyframes p3c5{0%,75%{opacity:0}76.5%{opacity:1}94%{opacity:1}97%{opacity:0}100%{opacity:0}}
@keyframes p3c6{0%,76.5%{opacity:0}78%{opacity:1}94%{opacity:1}97%{opacity:0}100%{opacity:0}}
@keyframes p3d{0%,78%{opacity:0}79.5%{opacity:1}94%{opacity:1}97%{opacity:0}100%{opacity:0}}

@keyframes shimmer{from{transform:translateX(-320px)}to{transform:translateX(320px)}}
.sh{animation:shimmer 2s linear infinite}
.bar{transform-box:fill-box;transform-origin:center bottom}
</style>
<defs>
  <linearGradient id="sg" x1="0" y1="0" x2="1" y2="0">
    <stop offset="0%" stop-color="#F5F5FD"/><stop offset="45%" stop-color="#EAEAF9"/>
    <stop offset="55%" stop-color="#EAEAF9"/><stop offset="100%" stop-color="#F5F5FD"/>
  </linearGradient>
  <pattern id="sp" x="0" y="0" width="320" height="1" patternUnits="userSpaceOnUse">
    <rect width="320" height="240" fill="url(#sg)" class="sh"/>
  </pattern>
</defs>

<rect x=".5" y=".5" width="319" height="239" rx="16" fill="white" fill-opacity=".5" stroke="#CFCFF3" stroke-width=".9"/>

<!-- ══════════════════════════════════════════════════════ -->
<!-- PAGE 1: Report — header / 4 KPI cards / bar chart / bottom row -->
<!-- ══════════════════════════════════════════════════════ -->
<rect class="vl" style="animation-name:p1t" x="32" y="20" width="110" height="9" rx="2.5" fill="#CFCFF3"/>
<rect class="vl" style="animation-name:p1s" x="32" y="33" width="170" height="5.5" rx="2" fill="url(#sp)"/>
<line class="vl" style="animation-name:p1l" x1="32" y1="46" x2="288" y2="46" stroke="#E2E2F8" stroke-width=".8"/>

<!-- 4 KPI cards — all appear together, smaller (w=56 h=20), 8px gap -->
<!-- card x positions: 32, 96, 160, 224 — w=56, gap=8 -->
<g class="vl" style="animation-name:p1k">
  <rect x="32" y="52" width="61" height="20" rx="3" fill="#6E6EDB" fill-opacity=".07" stroke="#CFCFF3" stroke-width=".8"/><rect x="37" y="56" width="24" height="5" rx="1.5" fill="#6E6EDB" fill-opacity=".25"/><rect x="37" y="64" width="36" height="3.5" rx="1" fill="url(#sp)"/>
  <rect x="97" y="52" width="61" height="20" rx="3" fill="#6E6EDB" fill-opacity=".07" stroke="#CFCFF3" stroke-width=".8"/><rect x="102" y="56" width="24" height="5" rx="1.5" fill="#6E6EDB" fill-opacity=".25"/><rect x="102" y="64" width="36" height="3.5" rx="1" fill="url(#sp)"/>
  <rect x="162" y="52" width="61" height="20" rx="3" fill="#6E6EDB" fill-opacity=".07" stroke="#CFCFF3" stroke-width=".8"/><rect x="167" y="56" width="24" height="5" rx="1.5" fill="#6E6EDB" fill-opacity=".25"/><rect x="167" y="64" width="36" height="3.5" rx="1" fill="url(#sp)"/>
  <rect x="227" y="52" width="61" height="20" rx="3" fill="#6E6EDB" fill-opacity=".07" stroke="#CFCFF3" stroke-width=".8"/><rect x="232" y="56" width="24" height="5" rx="1.5" fill="#6E6EDB" fill-opacity=".25"/><rect x="232" y="64" width="36" height="3.5" rx="1" fill="url(#sp)"/>
</g>

<!-- Bar chart frame — starts at y=80, height=52, good space after KPI cards -->
<g class="vl" style="animation-name:p1fr">
  <rect x="32" y="80" width="256" height="52" rx="4" fill="none" stroke="#CFCFF3" stroke-width=".8"/>
  <line x1="48" y1="126" x2="288" y2="126" stroke="#CFCFF3" stroke-width=".8"/>
  <line x1="48" y1="84" x2="48" y2="126" stroke="#E2E2F8" stroke-width=".7"/>
  <rect x="34" y="103" width="10" height="3" rx="1" fill="#E2E2F8"/>
  <rect x="34" y="113" width="10" height="3" rx="1" fill="#E2E2F8"/>
  <line x1="48" y1="104" x2="288" y2="104" stroke="#E2E2F8" stroke-width=".4" stroke-dasharray="3 3"/>
  <line x1="48" y1="114" x2="288" y2="114" stroke="#E2E2F8" stroke-width=".4" stroke-dasharray="3 3"/>
</g>
<!-- 5 bars — single color, staggered one by one -->
<rect class="vl bar" style="animation-name:p1bars" x="60" y="105" width="16" height="21" rx="2" fill="#6E6EDB" fill-opacity=".7"/>
<rect class="vl bar" style="animation-name:p1bars" x="100" y="93" width="16" height="33" rx="2" fill="#6E6EDB" fill-opacity=".7"/>
<rect class="vl bar" style="animation-name:p1bars" x="140" y="110" width="16" height="16" rx="2" fill="#6E6EDB" fill-opacity=".7"/>
<rect class="vl bar" style="animation-name:p1bars" x="180" y="98" width="16" height="28" rx="2" fill="#6E6EDB" fill-opacity=".7"/>
<rect class="vl bar" style="animation-name:p1bars" x="220" y="107" width="16" height="19" rx="2" fill="#6E6EDB" fill-opacity=".7"/>
<rect class="vl bar" style="animation-name:p1bars" x="260" y="101" width="16" height="25" rx="2" fill="#6E6EDB" fill-opacity=".7"/>
<g class="vl" style="animation-name:p1bd"><rect x="60" y="130" width="16" height="3.5" rx="1" fill="url(#sp)"/><rect x="100" y="130" width="16" height="3.5" rx="1" fill="url(#sp)"/><rect x="140" y="130" width="16" height="3.5" rx="1" fill="url(#sp)"/><rect x="180" y="130" width="16" height="3.5" rx="1" fill="url(#sp)"/><rect x="220" y="130" width="16" height="3.5" rx="1" fill="url(#sp)"/><rect x="260" y="130" width="16" height="3.5" rx="1" fill="url(#sp)"/></g>

<!-- Bottom row: donut card (left) + mini table (right) — y=142, 10px gap from chart -->
<!-- Donut card -->
<g class="vl" style="animation-name:p1donut">
  <rect x="32" y="140" width="118" height="52" rx="4" fill="none" stroke="#CFCFF3" stroke-width=".8"/>
  <circle cx="72" cy="164" r="14" fill="none" stroke="#6E6EDB" stroke-width="7" stroke-dasharray="44 44"/>
  <circle cx="72" cy="164" r="14" fill="none" stroke="#6E6EDB" stroke-width="7" stroke-dasharray="44 44" stroke-dashoffset="-44" opacity=".4"/>
  <rect x="96" y="148" width="8" height="3.5" rx="1" fill="#6E6EDB" fill-opacity=".7"/>
  <rect x="108" y="148" width="32" height="3.5" rx="1.5" fill="url(#sp)"/>
  <rect x="96" y="155" width="8" height="3.5" rx="1" fill="#9E9EE7" fill-opacity=".5"/>
  <rect x="108" y="155" width="26" height="3.5" rx="1.5" fill="url(#sp)"/>
</g>
<!-- Mini table -->
<g class="vl" style="animation-name:p1table">
  <rect x="158" y="140" width="130" height="52" rx="4" fill="none" stroke="#CFCFF3" stroke-width=".8"/>
  <rect x="158" y="140" width="130" height="11" rx="4" fill="#6E6EDB" fill-opacity=".08"/>
  <line x1="158" y1="151" x2="288" y2="151" stroke="#CFCFF3" stroke-width=".7"/>
  <rect x="163" y="143" width="38" height="3.5" rx="1.5" fill="#9E9EE7" opacity=".7"/>
  <rect x="220" y="143" width="28" height="3.5" rx="1.5" fill="#6E6EDB" fill-opacity=".7"/>
  <line x1="214" y1="140" x2="214" y2="192" stroke="#E2E2F8" stroke-width=".6"/>
  <line x1="158" y1="161" x2="288" y2="161" stroke="#E2E2F8" stroke-width=".5"/>
  <rect x="163" y="154" width="36" height="3.5" rx="1.5" fill="url(#sp)"/>
  <rect x="220" y="154" width="24" height="3.5" rx="1.5" fill="url(#sp)"/>
  <line x1="158" y1="171" x2="288" y2="171" stroke="#E2E2F8" stroke-width=".5"/>
  <rect x="163" y="164" width="28" height="3.5" rx="1.5" fill="url(#sp)"/>
  <rect x="220" y="164" width="30" height="3.5" rx="1.5" fill="url(#sp)"/>
  <line x1="158" y1="181" x2="288" y2="181" stroke="#E2E2F8" stroke-width=".5"/>
  <rect x="163" y="174" width="40" height="3.5" rx="1.5" fill="url(#sp)"/>
  <rect x="220" y="174" width="20" height="3.5" rx="1.5" fill="url(#sp)"/>
  <rect x="163" y="184" width="32" height="3.5" rx="1.5" fill="url(#sp)"/>
  <rect x="220" y="184" width="26" height="3.5" rx="1.5" fill="url(#sp)"/>
</g>

<!-- ══════════════════════════════════════════════════════ -->
<!-- PAGE 2: Table page — header / 4 KPI cards / full table -->
<!-- ══════════════════════════════════════════════════════ -->
<rect class="vl" style="animation-name:p2t" x="32" y="20" width="90" height="9" rx="2.5" fill="#CFCFF3"/>
<rect class="vl" style="animation-name:p2s" x="32" y="33" width="150" height="5.5" rx="2" fill="url(#sp)"/>
<line class="vl" style="animation-name:p2l" x1="32" y1="46" x2="288" y2="46" stroke="#E2E2F8" stroke-width=".8"/>

<!-- 4 KPI cards together -->
<g class="vl" style="animation-name:p2k">
  <rect x="32" y="52" width="82" height="16" rx="3" fill="#6E6EDB" fill-opacity=".07" stroke="#CFCFF3" stroke-width=".8"/><rect x="38" y="57" width="40" height="5" rx="1.5" fill="#6E6EDB" fill-opacity=".25"/><circle cx="104" cy="60" r="5" fill="#6E6EDB" fill-opacity=".7"/>
  <rect x="119" y="52" width="82" height="16" rx="3" fill="#6E6EDB" fill-opacity=".07" stroke="#CFCFF3" stroke-width=".8"/><rect x="125" y="57" width="40" height="5" rx="1.5" fill="#6E6EDB" fill-opacity=".25"/><circle cx="191" cy="60" r="5" fill="#6E6EDB" fill-opacity=".7"/>
  <rect x="206" y="52" width="82" height="16" rx="3" fill="#6E6EDB" fill-opacity=".07" stroke="#CFCFF3" stroke-width=".8"/><rect x="212" y="57" width="40" height="5" rx="1.5" fill="#6E6EDB" fill-opacity=".25"/><circle cx="278" cy="60" r="5" fill="#6E6EDB" fill-opacity=".7"/>
</g>

<!-- Full table frame + header -->
<g class="vl" style="animation-name:p2fr">
  <rect x="32" y="76" width="256" height="13" rx="4" fill="#6E6EDB" fill-opacity=".08"/>
  <rect x="32" y="76" width="256" height="117" rx="4" fill="none" stroke="#CFCFF3" stroke-width=".8"/>
  <line x1="32" y1="89" x2="288" y2="89" stroke="#CFCFF3" stroke-width=".7"/>
  <rect x="38" y="80" width="56" height="4" rx="1.5" fill="#9E9EE7" opacity=".7"/>
  <rect x="118" y="80" width="42" height="4" rx="1.5" fill="#9E9EE7" opacity=".55"/>
  <rect x="192" y="80" width="42" height="4" rx="1.5" fill="#9E9EE7" opacity=".55"/>
  <rect x="256" y="80" width="24" height="4" rx="1.5" fill="#9E9EE7" opacity=".45"/>
  <line x1="112" y1="76" x2="112" y2="193" stroke="#E2E2F8" stroke-width=".6"/>
  <line x1="186" y1="76" x2="186" y2="193" stroke="#E2E2F8" stroke-width=".6"/>
  <line x1="250" y1="76" x2="250" y2="193" stroke="#E2E2F8" stroke-width=".6"/>
</g>
<!-- 7 rows appearing one by one -->
<g class="vl" style="animation-name:p2r1"><line x1="32" y1="102" x2="288" y2="102" stroke="#E2E2F8" stroke-width=".5"/><rect x="38" y="92" width="50" height="4" rx="1.5" fill="url(#sp)"/><rect x="118" y="92" width="36" height="4" rx="1.5" fill="url(#sp)"/><rect x="192" y="92" width="38" height="4" rx="1.5" fill="url(#sp)"/><rect x="256" y="92" width="20" height="4" rx="1.5" fill="url(#sp)"/></g>
<g class="vl" style="animation-name:p2r2"><line x1="32" y1="115" x2="288" y2="115" stroke="#E2E2F8" stroke-width=".5"/><rect x="38" y="105" width="42" height="4" rx="1.5" fill="url(#sp)"/><rect x="118" y="105" width="42" height="4" rx="1.5" fill="url(#sp)"/><rect x="192" y="105" width="34" height="4" rx="1.5" fill="url(#sp)"/><rect x="256" y="105" width="22" height="4" rx="1.5" fill="url(#sp)"/></g>
<g class="vl" style="animation-name:p2r3"><line x1="32" y1="128" x2="288" y2="128" stroke="#E2E2F8" stroke-width=".5"/><rect x="38" y="118" width="56" height="4" rx="1.5" fill="url(#sp)"/><rect x="118" y="118" width="34" height="4" rx="1.5" fill="url(#sp)"/><rect x="192" y="118" width="42" height="4" rx="1.5" fill="url(#sp)"/><rect x="256" y="118" width="18" height="4" rx="1.5" fill="url(#sp)"/></g>
<g class="vl" style="animation-name:p2r4"><line x1="32" y1="141" x2="288" y2="141" stroke="#E2E2F8" stroke-width=".5"/><rect x="38" y="131" width="46" height="4" rx="1.5" fill="url(#sp)"/><rect x="118" y="131" width="40" height="4" rx="1.5" fill="url(#sp)"/><rect x="192" y="131" width="36" height="4" rx="1.5" fill="url(#sp)"/><rect x="256" y="131" width="24" height="4" rx="1.5" fill="url(#sp)"/></g>
<g class="vl" style="animation-name:p2r5"><line x1="32" y1="154" x2="288" y2="154" stroke="#E2E2F8" stroke-width=".5"/><rect x="38" y="144" width="54" height="4" rx="1.5" fill="url(#sp)"/><rect x="118" y="144" width="30" height="4" rx="1.5" fill="url(#sp)"/><rect x="192" y="144" width="40" height="4" rx="1.5" fill="url(#sp)"/><rect x="256" y="144" width="20" height="4" rx="1.5" fill="url(#sp)"/></g>
<g class="vl" style="animation-name:p2r6"><line x1="32" y1="167" x2="288" y2="167" stroke="#E2E2F8" stroke-width=".5"/><rect x="38" y="157" width="38" height="4" rx="1.5" fill="url(#sp)"/><rect x="118" y="157" width="44" height="4" rx="1.5" fill="url(#sp)"/><rect x="192" y="157" width="32" height="4" rx="1.5" fill="url(#sp)"/><rect x="256" y="157" width="22" height="4" rx="1.5" fill="url(#sp)"/></g>
<g class="vl" style="animation-name:p2r7"><line x1="32" y1="180" x2="288" y2="180" stroke="#E2E2F8" stroke-width=".5"/><rect x="38" y="170" width="50" height="4" rx="1.5" fill="url(#sp)"/><rect x="118" y="170" width="36" height="4" rx="1.5" fill="url(#sp)"/><rect x="192" y="170" width="38" height="4" rx="1.5" fill="url(#sp)"/><rect x="256" y="170" width="20" height="4" rx="1.5" fill="url(#sp)"/></g>

<g class="vl" style="animation-name:p2r8"><line x1="32" y1="193" x2="288" y2="193" stroke="#E2E2F8" stroke-width=".5"/><rect x="38" y="183" width="44" height="4" rx="1.5" fill="url(#sp)"/><rect x="118" y="183" width="38" height="4" rx="1.5" fill="url(#sp)"/><rect x="192" y="183" width="36" height="4" rx="1.5" fill="url(#sp)"/><rect x="256" y="183" width="22" height="4" rx="1.5" fill="url(#sp)"/></g>
<!-- ══════════════════════════════════════════════════════ -->
<!-- PAGE 3: List page — header / 4 KPI cards / 5 list rows -->
<!-- ══════════════════════════════════════════════════════ -->
<rect class="vl" style="animation-name:p3t" x="32" y="20" width="100" height="9" rx="2.5" fill="#CFCFF3"/>
<rect class="vl" style="animation-name:p3s" x="32" y="33" width="160" height="5.5" rx="2" fill="url(#sp)"/>
<line class="vl" style="animation-name:p3l" x1="32" y1="46" x2="288" y2="46" stroke="#E2E2F8" stroke-width=".8"/>

<!-- LEFT: list panel (6 rows) + RIGHT: employee detail panel -->
<g class="vl" style="animation-name:p3c1"><rect x="32" y="57" width="118" height="18" rx="3" fill="#6E6EDB" fill-opacity=".07" stroke="#CFCFF3" stroke-width=".8"/><circle cx="42" cy="66" r="4" fill="#6E6EDB" fill-opacity=".7"/><rect x="51" y="61" width="58" height="4" rx="1.5" fill="#CFCFF3"/><rect x="51" y="68" width="40" height="3" rx="1" fill="url(#sp)"/></g>
<g class="vl" style="animation-name:p3c2"><rect x="32" y="81" width="118" height="18" rx="3" fill="#6E6EDB" fill-opacity=".07" stroke="#CFCFF3" stroke-width=".8"/><circle cx="42" cy="90" r="4" fill="#6E6EDB" fill-opacity=".7"/><rect x="51" y="85" width="70" height="4" rx="1.5" fill="#CFCFF3"/><rect x="51" y="92" width="48" height="3" rx="1" fill="url(#sp)"/></g>
<g class="vl" style="animation-name:p3c3"><rect x="32" y="105" width="118" height="18" rx="3" fill="#6E6EDB" fill-opacity=".07" stroke="#CFCFF3" stroke-width=".8"/><circle cx="42" cy="114" r="4" fill="#6E6EDB" fill-opacity=".7"/><rect x="51" y="109" width="50" height="4" rx="1.5" fill="#CFCFF3"/><rect x="51" y="116" width="34" height="3" rx="1" fill="url(#sp)"/></g>
<g class="vl" style="animation-name:p3c4"><rect x="32" y="129" width="118" height="18" rx="3" fill="#6E6EDB" fill-opacity=".07" stroke="#CFCFF3" stroke-width=".8"/><circle cx="42" cy="138" r="4" fill="#6E6EDB" fill-opacity=".7"/><rect x="51" y="133" width="64" height="4" rx="1.5" fill="#CFCFF3"/><rect x="51" y="140" width="44" height="3" rx="1" fill="url(#sp)"/></g>
<g class="vl" style="animation-name:p3c5"><rect x="32" y="153" width="118" height="18" rx="3" fill="#6E6EDB" fill-opacity=".07" stroke="#CFCFF3" stroke-width=".8"/><circle cx="42" cy="162" r="4" fill="#6E6EDB" fill-opacity=".7"/><rect x="51" y="157" width="54" height="4" rx="1.5" fill="#CFCFF3"/><rect x="51" y="164" width="36" height="3" rx="1" fill="url(#sp)"/></g>
<g class="vl" style="animation-name:p3c6"><rect x="32" y="177" width="118" height="18" rx="3" fill="#6E6EDB" fill-opacity=".07" stroke="#CFCFF3" stroke-width=".8"/><circle cx="42" cy="186" r="4" fill="#6E6EDB" fill-opacity=".7"/><rect x="51" y="181" width="62" height="4" rx="1.5" fill="#CFCFF3"/><rect x="51" y="188" width="42" height="3" rx="1" fill="url(#sp)"/></g>
<g class="vl" style="animation-name:p3d"><rect x="158" y="57" width="130" height="138" rx="4" fill="#6E6EDB" fill-opacity=".04" stroke="#CFCFF3" stroke-width=".8"/><circle cx="175" cy="77" r="10" fill="#6E6EDB" fill-opacity=".7"/><rect x="191" y="71" width="52" height="5" rx="1.5" fill="#CFCFF3"/><rect x="191" y="80" width="38" height="3.5" rx="1" fill="url(#sp)"/><line x1="168" y1="97" x2="278" y2="97" stroke="#E2E2F8" stroke-width=".7"/><rect x="168" y="106" width="26" height="3.5" rx="1" fill="#CFCFF3" opacity=".7"/><rect x="168" y="113" width="54" height="3.5" rx="1.5" fill="url(#sp)"/><rect x="168" y="126" width="22" height="3.5" rx="1" fill="#CFCFF3" opacity=".7"/><rect x="168" y="133" width="62" height="3.5" rx="1.5" fill="url(#sp)"/><rect x="168" y="146" width="30" height="3.5" rx="1" fill="#CFCFF3" opacity=".7"/><rect x="168" y="153" width="46" height="3.5" rx="1.5" fill="url(#sp)"/><rect x="168" y="166" width="24" height="3.5" rx="1" fill="#CFCFF3" opacity=".7"/><rect x="168" y="173" width="50" height="3.5" rx="1.5" fill="url(#sp)"/></g>

<!-- SPARKLE -->
<rect x="262.947" y="187.972" width="40.309" height="40.309" rx="20.154" fill="white"/>
<rect x="262.947" y="187.972" width="40.309" height="40.309" rx="20.154" stroke="#E2E2F8" stroke-width=".938"/>
<path d="M280.301 199.425L281.423 202.434C281.917 203.759 283.037 204.801 284.461 205.262L287.690 206.307L284.461 207.352C283.037 207.813 281.917 208.855 281.423 210.182L280.301 213.190L279.179 210.182C278.684 208.855 277.565 207.813 276.142 207.352L272.912 206.307L276.142 205.262C277.565 204.801 278.684 203.759 279.179 202.434L280.301 199.425Z" fill="#6E6EDB" opacity=".8"/>
<path d="M288.996 208.737L289.147 209.141C289.642 210.467 290.759 211.510 292.184 211.970L292.619 212.110L292.184 212.250C290.759 212.711 289.642 213.754 289.147 215.080L288.996 215.484L288.845 215.080C288.350 213.754 287.231 212.711 285.807 212.250L285.374 212.110L285.807 211.970C287.231 211.510 288.350 210.467 288.845 209.141L288.996 208.737Z" fill="#6E6EDB" opacity=".8"/>
<path d="M287.547 198.617C287.853 199.439 288.547 200.085 289.430 200.370C288.547 200.657 287.853 201.303 287.547 202.125C287.239 201.303 286.545 200.657 285.663 200.370C286.545 200.085 287.239 199.439 287.547 198.617Z" fill="#6E6EDB" opacity=".8"/>
</svg>
