<svg width="320" height="240" viewBox="0 0 320 240" fill="none" xmlns="http://www.w3.org/2000/svg">
<style>
.vl{opacity:0;animation-duration:24s;animation-timing-function:cubic-bezier(.4,0,.2,1);animation-iteration-count:infinite;animation-fill-mode:both}

/* P1 — all cards + highlight fade in and out together */
@keyframes c1{0%,1%{opacity:0}2.5%{opacity:1}9%{opacity:1}10.5%{opacity:0}100%{opacity:0}}
@keyframes c2{0%,1%{opacity:0}2.5%{opacity:1}9%{opacity:1}10.5%{opacity:0}100%{opacity:0}}
@keyframes c3{0%,1%{opacity:0}2.5%{opacity:1}9%{opacity:1}10.5%{opacity:0}100%{opacity:0}}
@keyframes c4{0%,1%{opacity:0}2.5%{opacity:1}9%{opacity:1}10.5%{opacity:0}100%{opacity:0}}
@keyframes c5{0%,1%{opacity:0}2.5%{opacity:1}9%{opacity:1}10.5%{opacity:0}100%{opacity:0}}
@keyframes c6{0%,1%{opacity:0}2.5%{opacity:1}9%{opacity:1}10.5%{opacity:0}100%{opacity:0}}
@keyframes hl1{0%,6%{opacity:0}9%{opacity:1}10.5%{opacity:0}100%{opacity:0}}

/* P1 header — sequential */
@keyframes h1t{0%,11%{opacity:0}13%{opacity:1}46.5%{opacity:1}52.5%{opacity:0}100%{opacity:0}}
@keyframes h1s{0%,13%{opacity:0}15%{opacity:1}46.5%{opacity:1}52.5%{opacity:0}100%{opacity:0}}
@keyframes h1l{0%,15%{opacity:0}16.5%{opacity:1}46.5%{opacity:1}52.5%{opacity:0}100%{opacity:0}}

/* Table build */
@keyframes tf{0%,16.5%{opacity:0}18.5%{opacity:1}46.5%{opacity:1}52.5%{opacity:0}100%{opacity:0}}
@keyframes td{0%,19%{opacity:0}21%{opacity:1}46.5%{opacity:1}52.5%{opacity:0}100%{opacity:0}}
@keyframes th{0%,21.5%{opacity:0}23.5%{opacity:1}46.5%{opacity:1}52.5%{opacity:0}100%{opacity:0}}
@keyframes r1{0%,24%{opacity:0}26%{opacity:1}46.5%{opacity:1}52.5%{opacity:0}100%{opacity:0}}
@keyframes r2{0%,26.5%{opacity:0}28.5%{opacity:1}46.5%{opacity:1}52.5%{opacity:0}100%{opacity:0}}
@keyframes r3{0%,29%{opacity:0}31%{opacity:1}46.5%{opacity:1}52.5%{opacity:0}100%{opacity:0}}
@keyframes r4{0%,31.5%{opacity:0}33.5%{opacity:1}46.5%{opacity:1}52.5%{opacity:0}100%{opacity:0}}
@keyframes r5{0%,34%{opacity:0}36%{opacity:1}46.5%{opacity:1}52.5%{opacity:0}100%{opacity:0}}
@keyframes r6{0%,36.5%{opacity:0}38.5%{opacity:1}46.5%{opacity:1}52.5%{opacity:0}100%{opacity:0}}
@keyframes r7{0%,39%{opacity:0}41%{opacity:1}46.5%{opacity:1}52.5%{opacity:0}100%{opacity:0}}

/* P2 — all cards + highlight fade in and out together */
@keyframes d1{0%,51%{opacity:0}52.5%{opacity:1}59%{opacity:1}60.5%{opacity:0}100%{opacity:0}}
@keyframes d2{0%,51%{opacity:0}52.5%{opacity:1}59%{opacity:1}60.5%{opacity:0}100%{opacity:0}}
@keyframes d3{0%,51%{opacity:0}52.5%{opacity:1}59%{opacity:1}60.5%{opacity:0}100%{opacity:0}}
@keyframes d4{0%,51%{opacity:0}52.5%{opacity:1}59%{opacity:1}60.5%{opacity:0}100%{opacity:0}}
@keyframes d5{0%,51%{opacity:0}52.5%{opacity:1}59%{opacity:1}60.5%{opacity:0}100%{opacity:0}}
@keyframes d6{0%,51%{opacity:0}52.5%{opacity:1}59%{opacity:1}60.5%{opacity:0}100%{opacity:0}}
@keyframes hl2{0%,56%{opacity:0}59%{opacity:1}60.5%{opacity:0}100%{opacity:0}}

/* P2 header — sequential */
@keyframes h2t{0%,61%{opacity:0}63%{opacity:1}87%{opacity:1}94%{opacity:0}100%{opacity:0}}
@keyframes h2s{0%,63%{opacity:0}65%{opacity:1}87%{opacity:1}94%{opacity:0}100%{opacity:0}}
@keyframes h2l{0%,65%{opacity:0}66.5%{opacity:1}87%{opacity:1}94%{opacity:0}100%{opacity:0}}

/* P2 list cards */
@keyframes lc1{0%,66.5%{opacity:0}68.5%{opacity:1}87%{opacity:1}94%{opacity:0}100%{opacity:0}}
@keyframes lc2{0%,69%{opacity:0}71%{opacity:1}87%{opacity:1}94%{opacity:0}100%{opacity:0}}
@keyframes lc3{0%,71.5%{opacity:0}73.5%{opacity:1}87%{opacity:1}94%{opacity:0}100%{opacity:0}}
@keyframes lc4{0%,74%{opacity:0}76%{opacity:1}87%{opacity:1}94%{opacity:0}100%{opacity:0}}

@keyframes shimmer{from{transform:translateX(-320px)}to{transform:translateX(320px)}}
.sh{animation:shimmer 2s linear infinite}
</style>
<defs>
  <linearGradient id="sg" x1="0" y1="0" x2="1" y2="0">
    <stop offset="0%" stop-color="#F5F5FD"/><stop offset="45%" stop-color="#EAEAF9"/>
    <stop offset="55%" stop-color="#EAEAF9"/><stop offset="100%" stop-color="#F5F5FD"/>
  </linearGradient>
  <pattern id="sp" x="0" y="0" width="320" height="1" patternUnits="userSpaceOnUse">
    <rect width="320" height="240" fill="url(#sg)" class="sh"/>
  </pattern>
</defs>

<rect x="0.468" y="0.436" width="317.785" height="239.052" rx="16.155" fill="white" fill-opacity="0.5" stroke="#CFCFF3" stroke-width="0.938"/>

<!-- P1 HEADER — title → subtitle → separator sequentially -->
<rect class="vl" style="animation-name:h1t" x="32" y="25" width="130" height="9" rx="2.5" fill="#CFCFF3"/>
<rect class="vl" style="animation-name:h1s" x="32" y="38" width="196" height="5.5" rx="2" fill="url(#sp)"/>
<line class="vl" style="animation-name:h1l" x1="32" y1="51" x2="288" y2="51" stroke="#E2E2F8" stroke-width="0.8"/>

<!-- P1 CARDS — slow stagger -->
<!-- Table (selected) -->
<g class="vl" style="animation-name:c1">
  <rect x="37" y="76" width="74" height="38" rx="6" fill="#6E6EDB" fill-opacity="0.08" stroke="#CFCFF3" stroke-width="0.9"/>
  <rect x="45" y="89" width="3" height="3" rx="0.5" fill="#9E9EE7"/><rect x="49.5" y="89" width="3" height="3" rx="0.5" fill="#9E9EE7"/><rect x="54" y="89" width="3" height="3" rx="0.5" fill="#9E9EE7"/>
  <rect x="45" y="93.5" width="3" height="3" rx="0.5" fill="#9E9EE7" opacity="0.6"/><rect x="49.5" y="93.5" width="3" height="3" rx="0.5" fill="#9E9EE7" opacity="0.6"/><rect x="54" y="93.5" width="3" height="3" rx="0.5" fill="#9E9EE7" opacity="0.6"/>
  <rect x="45" y="98" width="3" height="3" rx="0.5" fill="#9E9EE7" opacity="0.35"/><rect x="49.5" y="98" width="3" height="3" rx="0.5" fill="#9E9EE7" opacity="0.35"/><rect x="54" y="98" width="3" height="3" rx="0.5" fill="#9E9EE7" opacity="0.35"/>
  <rect x="62" y="90" width="40" height="5" rx="1.5" fill="#CFCFF3"/>
  <rect x="62" y="98" width="28" height="3.5" rx="1.5" fill="url(#sp)"/>
</g>
<!-- Table highlight overlay — slow bloom, same border width, softer fill -->
<g class="vl" style="animation-name:hl1">
  <rect x="37" y="76" width="74" height="38" rx="6" fill="#6E6EDB" fill-opacity="0.08" stroke="#6E6EDB" stroke-width="0.9"/>
</g>
<!-- Gallery -->
<g class="vl" style="animation-name:c2">
  <rect x="123" y="76" width="74" height="38" rx="6" fill="#6E6EDB" fill-opacity="0.08" stroke="#CFCFF3" stroke-width="0.9"/>
  <rect x="131" y="89" width="5" height="5" rx="1" fill="#9E9EE7"/><rect x="138" y="89" width="5" height="5" rx="1" fill="#9E9EE7" opacity="0.7"/>
  <rect x="131" y="96" width="5" height="5" rx="1" fill="#9E9EE7" opacity="0.6"/><rect x="138" y="96" width="5" height="5" rx="1" fill="#9E9EE7" opacity="0.5"/>
  <rect x="148" y="90" width="40" height="5" rx="1.5" fill="#CFCFF3"/>
  <rect x="148" y="98" width="28" height="3.5" rx="1.5" fill="url(#sp)"/>
</g>
<!-- Kanban -->
<g class="vl" style="animation-name:c3">
  <rect x="209" y="76" width="74" height="38" rx="6" fill="#6E6EDB" fill-opacity="0.08" stroke="#CFCFF3" stroke-width="0.9"/>
  <rect x="217" y="91" width="3" height="10" rx="0.8" fill="#9E9EE7"/>
  <rect x="221.5" y="89" width="3" height="12" rx="0.8" fill="#9E9EE7" opacity="0.75"/>
  <rect x="226" y="93" width="3" height="8" rx="0.8" fill="#9E9EE7" opacity="0.5"/>
  <rect x="234" y="90" width="40" height="5" rx="1.5" fill="#CFCFF3"/>
  <rect x="234" y="98" width="28" height="3.5" rx="1.5" fill="url(#sp)"/>
</g>
<!-- Gant -->
<g class="vl" style="animation-name:c4">
  <rect x="37" y="126" width="74" height="38" rx="6" fill="#6E6EDB" fill-opacity="0.08" stroke="#CFCFF3" stroke-width="0.9"/>
  <rect x="45" y="139" width="9" height="2.5" rx="1" fill="#9E9EE7"/>
  <rect x="47" y="143" width="7" height="2.5" rx="1" fill="#9E9EE7" opacity="0.75"/>
  <rect x="45" y="147" width="8" height="2.5" rx="1" fill="#9E9EE7" opacity="0.55"/>
  <rect x="48" y="151" width="6" height="2.5" rx="1" fill="#9E9EE7" opacity="0.35"/>
  <rect x="62" y="140" width="40" height="5" rx="1.5" fill="#CFCFF3"/>
  <rect x="62" y="148" width="28" height="3.5" rx="1.5" fill="url(#sp)"/>
</g>
<!-- List -->
<g class="vl" style="animation-name:c5">
  <rect x="123" y="126" width="74" height="38" rx="6" fill="#6E6EDB" fill-opacity="0.08" stroke="#CFCFF3" stroke-width="0.9"/>
  <circle cx="132.5" cy="140.5" r="1.5" fill="#9E9EE7"/>
  <rect x="136" y="139" width="7" height="2.5" rx="1" fill="#9E9EE7" opacity="0.7"/>
  <circle cx="132.5" cy="145" r="1.5" fill="#9E9EE7"/>
  <rect x="136" y="143.5" width="9" height="2.5" rx="1" fill="#9E9EE7" opacity="0.7"/>
  <circle cx="132.5" cy="149.5" r="1.5" fill="#9E9EE7"/>
  <rect x="136" y="148" width="6" height="2.5" rx="1" fill="#9E9EE7" opacity="0.7"/>
  <rect x="148" y="140" width="40" height="5" rx="1.5" fill="#CFCFF3"/>
  <rect x="148" y="148" width="28" height="3.5" rx="1.5" fill="url(#sp)"/>
</g>
<!-- Grid -->
<g class="vl" style="animation-name:c6">
  <rect x="209" y="126" width="74" height="38" rx="6" fill="#6E6EDB" fill-opacity="0.08" stroke="#CFCFF3" stroke-width="0.9"/>
  <rect x="217" y="139" width="5" height="5" rx="1" fill="#9E9EE7"/>
  <rect x="223.5" y="139" width="5" height="5" rx="1" fill="#9E9EE7" opacity="0.7"/>
  <rect x="217" y="145.5" width="5" height="5" rx="1" fill="#9E9EE7" opacity="0.7"/>
  <rect x="223.5" y="145.5" width="5" height="5" rx="1" fill="#9E9EE7" opacity="0.5"/>
  <rect x="234" y="140" width="40" height="5" rx="1.5" fill="#CFCFF3"/>
  <rect x="234" y="148" width="28" height="3.5" rx="1.5" fill="url(#sp)"/>
</g>

<!-- TABLE BUILD -->
<g class="vl" style="animation-name:tf">
  <rect x="32" y="71" width="256" height="112" rx="4" fill="none" stroke="#CFCFF3" stroke-width="0.9"/>
  <line x1="32" y1="85" x2="288" y2="85" stroke="#CFCFF3" stroke-width="0.9"/>
</g>
<g class="vl" style="animation-name:td">
  <line x1="134" y1="71" x2="134" y2="183" stroke="#E2E2F8" stroke-width="0.8"/>
  <line x1="198" y1="71" x2="198" y2="183" stroke="#E2E2F8" stroke-width="0.8"/>
  <line x1="262" y1="71" x2="262" y2="183" stroke="#E2E2F8" stroke-width="0.8"/>
</g>
<g class="vl" style="animation-name:th">
  <rect x="32" y="71" width="256" height="14" rx="4" fill="#6E6EDB" fill-opacity="0.12"/>
  <rect x="38" y="74.5" width="58" height="5" rx="1.5" fill="#9E9EE7" opacity="0.8"/>
  <rect x="140" y="74.5" width="38" height="5" rx="1.5" fill="#9E9EE7" opacity="0.6"/>
  <rect x="204" y="74.5" width="38" height="5" rx="1.5" fill="#9E9EE7" opacity="0.6"/>
  <rect x="265" y="74.5" width="14" height="5" rx="1.5" fill="#9E9EE7" opacity="0.5"/>
</g>
<g class="vl" style="animation-name:r1"><rect x="32" y="85" width="256" height="14" fill="#6E6EDB" fill-opacity="0.04"/><line x1="32" y1="99" x2="288" y2="99" stroke="#E2E2F8" stroke-width="0.5"/><rect x="38" y="88.5" width="52" height="4" rx="1.5" fill="url(#sp)"/><rect x="140" y="88.5" width="34" height="4" rx="1.5" fill="url(#sp)"/><rect x="204" y="88.5" width="36" height="4" rx="1.5" fill="url(#sp)"/><rect x="265" y="88.5" width="14" height="4" rx="1.5" fill="url(#sp)"/></g>
<g class="vl" style="animation-name:r2"><rect x="32" y="99" width="256" height="14" fill="#6E6EDB" fill-opacity="0.04"/><line x1="32" y1="113" x2="288" y2="113" stroke="#E2E2F8" stroke-width="0.5"/><rect x="38" y="102.5" width="62" height="4" rx="1.5" fill="url(#sp)"/><rect x="140" y="102.5" width="28" height="4" rx="1.5" fill="url(#sp)"/><rect x="204" y="102.5" width="40" height="4" rx="1.5" fill="url(#sp)"/><rect x="265" y="102.5" width="14" height="4" rx="1.5" fill="url(#sp)"/></g>
<g class="vl" style="animation-name:r3"><rect x="32" y="113" width="256" height="14" fill="#6E6EDB" fill-opacity="0.04"/><line x1="32" y1="127" x2="288" y2="127" stroke="#E2E2F8" stroke-width="0.5"/><rect x="38" y="116.5" width="46" height="4" rx="1.5" fill="url(#sp)"/><rect x="140" y="116.5" width="38" height="4" rx="1.5" fill="url(#sp)"/><rect x="204" y="116.5" width="30" height="4" rx="1.5" fill="url(#sp)"/><rect x="265" y="116.5" width="14" height="4" rx="1.5" fill="url(#sp)"/></g>
<g class="vl" style="animation-name:r4"><rect x="32" y="127" width="256" height="14" fill="#6E6EDB" fill-opacity="0.04"/><line x1="32" y1="141" x2="288" y2="141" stroke="#E2E2F8" stroke-width="0.5"/><rect x="38" y="130.5" width="56" height="4" rx="1.5" fill="url(#sp)"/><rect x="140" y="130.5" width="32" height="4" rx="1.5" fill="url(#sp)"/><rect x="204" y="130.5" width="36" height="4" rx="1.5" fill="url(#sp)"/><rect x="265" y="130.5" width="14" height="4" rx="1.5" fill="url(#sp)"/></g>
<g class="vl" style="animation-name:r5"><rect x="32" y="141" width="256" height="14" fill="#6E6EDB" fill-opacity="0.04"/><line x1="32" y1="155" x2="288" y2="155" stroke="#E2E2F8" stroke-width="0.5"/><rect x="38" y="144.5" width="44" height="4" rx="1.5" fill="url(#sp)"/><rect x="140" y="144.5" width="36" height="4" rx="1.5" fill="url(#sp)"/><rect x="204" y="144.5" width="28" height="4" rx="1.5" fill="url(#sp)"/><rect x="265" y="144.5" width="14" height="4" rx="1.5" fill="url(#sp)"/></g>
<g class="vl" style="animation-name:r6"><rect x="32" y="155" width="256" height="14" fill="#6E6EDB" fill-opacity="0.04"/><line x1="32" y1="169" x2="288" y2="169" stroke="#E2E2F8" stroke-width="0.5"/><rect x="38" y="158.5" width="60" height="4" rx="1.5" fill="url(#sp)"/><rect x="140" y="158.5" width="30" height="4" rx="1.5" fill="url(#sp)"/><rect x="204" y="158.5" width="38" height="4" rx="1.5" fill="url(#sp)"/><rect x="265" y="158.5" width="14" height="4" rx="1.5" fill="url(#sp)"/></g>
<g class="vl" style="animation-name:r7"><rect x="32" y="169" width="256" height="14" fill="#6E6EDB" fill-opacity="0.04"/><rect x="38" y="172.5" width="50" height="4" rx="1.5" fill="url(#sp)"/><rect x="140" y="172.5" width="34" height="4" rx="1.5" fill="url(#sp)"/><rect x="204" y="172.5" width="32" height="4" rx="1.5" fill="url(#sp)"/><rect x="265" y="172.5" width="14" height="4" rx="1.5" fill="url(#sp)"/></g>

<!-- P2 CARDS -->
<g class="vl" style="animation-name:d1">
  <rect x="37" y="76" width="74" height="38" rx="6" fill="#6E6EDB" fill-opacity="0.08" stroke="#CFCFF3" stroke-width="0.9"/>
  <rect x="45" y="89" width="3" height="3" rx="0.5" fill="#9E9EE7"/><rect x="49.5" y="89" width="3" height="3" rx="0.5" fill="#9E9EE7"/><rect x="54" y="89" width="3" height="3" rx="0.5" fill="#9E9EE7"/>
  <rect x="45" y="93.5" width="3" height="3" rx="0.5" fill="#9E9EE7" opacity="0.6"/><rect x="49.5" y="93.5" width="3" height="3" rx="0.5" fill="#9E9EE7" opacity="0.6"/><rect x="54" y="93.5" width="3" height="3" rx="0.5" fill="#9E9EE7" opacity="0.6"/>
  <rect x="45" y="98" width="3" height="3" rx="0.5" fill="#9E9EE7" opacity="0.35"/><rect x="49.5" y="98" width="3" height="3" rx="0.5" fill="#9E9EE7" opacity="0.35"/><rect x="54" y="98" width="3" height="3" rx="0.5" fill="#9E9EE7" opacity="0.35"/>
  <rect x="62" y="90" width="40" height="5" rx="1.5" fill="#CFCFF3"/>
  <rect x="62" y="98" width="28" height="3.5" rx="1.5" fill="url(#sp)"/>
</g>
<g class="vl" style="animation-name:d2">
  <rect x="123" y="76" width="74" height="38" rx="6" fill="#6E6EDB" fill-opacity="0.08" stroke="#CFCFF3" stroke-width="0.9"/>
  <rect x="131" y="89" width="5" height="5" rx="1" fill="#9E9EE7"/><rect x="138" y="89" width="5" height="5" rx="1" fill="#9E9EE7" opacity="0.7"/>
  <rect x="131" y="96" width="5" height="5" rx="1" fill="#9E9EE7" opacity="0.6"/><rect x="138" y="96" width="5" height="5" rx="1" fill="#9E9EE7" opacity="0.5"/>
  <rect x="148" y="90" width="40" height="5" rx="1.5" fill="#CFCFF3"/>
  <rect x="148" y="98" width="28" height="3.5" rx="1.5" fill="url(#sp)"/>
</g>
<g class="vl" style="animation-name:d3">
  <rect x="209" y="76" width="74" height="38" rx="6" fill="#6E6EDB" fill-opacity="0.08" stroke="#CFCFF3" stroke-width="0.9"/>
  <rect x="217" y="91" width="3" height="10" rx="0.8" fill="#9E9EE7"/>
  <rect x="221.5" y="89" width="3" height="12" rx="0.8" fill="#9E9EE7" opacity="0.75"/>
  <rect x="226" y="93" width="3" height="8" rx="0.8" fill="#9E9EE7" opacity="0.5"/>
  <rect x="234" y="90" width="40" height="5" rx="1.5" fill="#CFCFF3"/>
  <rect x="234" y="98" width="28" height="3.5" rx="1.5" fill="url(#sp)"/>
</g>
<g class="vl" style="animation-name:d4">
  <rect x="37" y="126" width="74" height="38" rx="6" fill="#6E6EDB" fill-opacity="0.08" stroke="#CFCFF3" stroke-width="0.9"/>
  <rect x="45" y="139" width="9" height="2.5" rx="1" fill="#9E9EE7"/>
  <rect x="47" y="143" width="7" height="2.5" rx="1" fill="#9E9EE7" opacity="0.75"/>
  <rect x="45" y="147" width="8" height="2.5" rx="1" fill="#9E9EE7" opacity="0.55"/>
  <rect x="48" y="151" width="6" height="2.5" rx="1" fill="#9E9EE7" opacity="0.35"/>
  <rect x="62" y="140" width="40" height="5" rx="1.5" fill="#CFCFF3"/>
  <rect x="62" y="148" width="28" height="3.5" rx="1.5" fill="url(#sp)"/>
</g>
<!-- List — selected in P2 -->
<g class="vl" style="animation-name:d5">
  <rect x="123" y="126" width="74" height="38" rx="6" fill="#6E6EDB" fill-opacity="0.08" stroke="#CFCFF3" stroke-width="0.9"/>
  <circle cx="132.5" cy="140.5" r="1.5" fill="#9E9EE7"/>
  <rect x="136" y="139" width="7" height="2.5" rx="1" fill="#9E9EE7" opacity="0.7"/>
  <circle cx="132.5" cy="145" r="1.5" fill="#9E9EE7"/>
  <rect x="136" y="143.5" width="9" height="2.5" rx="1" fill="#9E9EE7" opacity="0.7"/>
  <circle cx="132.5" cy="149.5" r="1.5" fill="#9E9EE7"/>
  <rect x="136" y="148" width="6" height="2.5" rx="1" fill="#9E9EE7" opacity="0.7"/>
  <rect x="148" y="140" width="40" height="5" rx="1.5" fill="#CFCFF3"/>
  <rect x="148" y="148" width="28" height="3.5" rx="1.5" fill="url(#sp)"/>
</g>
<!-- List highlight overlay -->
<g class="vl" style="animation-name:hl2">
  <rect x="123" y="126" width="74" height="38" rx="6" fill="#6E6EDB" fill-opacity="0.08" stroke="#6E6EDB" stroke-width="0.9"/>
</g>
<g class="vl" style="animation-name:d6">
  <rect x="209" y="126" width="74" height="38" rx="6" fill="#6E6EDB" fill-opacity="0.08" stroke="#CFCFF3" stroke-width="0.9"/>
  <rect x="217" y="139" width="5" height="5" rx="1" fill="#9E9EE7"/>
  <rect x="223.5" y="139" width="5" height="5" rx="1" fill="#9E9EE7" opacity="0.7"/>
  <rect x="217" y="145.5" width="5" height="5" rx="1" fill="#9E9EE7" opacity="0.7"/>
  <rect x="223.5" y="145.5" width="5" height="5" rx="1" fill="#9E9EE7" opacity="0.5"/>
  <rect x="234" y="140" width="40" height="5" rx="1.5" fill="#CFCFF3"/>
  <rect x="234" y="148" width="28" height="3.5" rx="1.5" fill="url(#sp)"/>
</g>

<!-- P2 HEADER — sequential -->
<rect class="vl" style="animation-name:h2t" x="32" y="25" width="130" height="9" rx="2.5" fill="#CFCFF3"/>
<rect class="vl" style="animation-name:h2s" x="32" y="38" width="196" height="5.5" rx="2" fill="url(#sp)"/>
<line class="vl" style="animation-name:h2l" x1="32" y1="51" x2="288" y2="51" stroke="#E2E2F8" stroke-width="0.8"/>

<!-- P2 LIST CARDS -->
<g class="vl" style="animation-name:lc1">
  <rect x="32" y="71" width="256" height="24" rx="5" fill="#6E6EDB" fill-opacity="0.07" stroke="#CFCFF3" stroke-width="0.9"/>
  <circle cx="46" cy="83" r="5" fill="#9E9EE7" opacity="0.55"/>
  <rect x="56" y="76" width="72" height="5" rx="1.5" fill="#CFCFF3"/>
  <rect x="56" y="84" width="48" height="3.5" rx="1.5" fill="url(#sp)"/>
  <rect x="244" y="77" width="36" height="6" rx="3" fill="#6E6EDB" fill-opacity="0.15" stroke="#CFCFF3" stroke-width="0.7"/>
</g>
<g class="vl" style="animation-name:lc2">
  <rect x="32" y="101" width="256" height="24" rx="5" fill="#6E6EDB" fill-opacity="0.07" stroke="#CFCFF3" stroke-width="0.9"/>
  <circle cx="46" cy="113" r="5" fill="#9E9EE7" opacity="0.55"/>
  <rect x="56" y="106" width="88" height="5" rx="1.5" fill="#CFCFF3"/>
  <rect x="56" y="114" width="56" height="3.5" rx="1.5" fill="url(#sp)"/>
  <rect x="244" y="107" width="36" height="6" rx="3" fill="#6E6EDB" fill-opacity="0.15" stroke="#CFCFF3" stroke-width="0.7"/>
</g>
<g class="vl" style="animation-name:lc3">
  <rect x="32" y="131" width="256" height="24" rx="5" fill="#6E6EDB" fill-opacity="0.07" stroke="#CFCFF3" stroke-width="0.9"/>
  <circle cx="46" cy="143" r="5" fill="#9E9EE7" opacity="0.55"/>
  <rect x="56" y="136" width="60" height="5" rx="1.5" fill="#CFCFF3"/>
  <rect x="56" y="144" width="42" height="3.5" rx="1.5" fill="url(#sp)"/>
  <rect x="244" y="137" width="36" height="6" rx="3" fill="#6E6EDB" fill-opacity="0.15" stroke="#CFCFF3" stroke-width="0.7"/>
</g>
<g class="vl" style="animation-name:lc4">
  <rect x="32" y="161" width="256" height="24" rx="5" fill="#6E6EDB" fill-opacity="0.07" stroke="#CFCFF3" stroke-width="0.9"/>
  <circle cx="46" cy="173" r="5" fill="#9E9EE7" opacity="0.55"/>
  <rect x="56" y="166" width="80" height="5" rx="1.5" fill="#CFCFF3"/>
  <rect x="56" y="174" width="52" height="3.5" rx="1.5" fill="url(#sp)"/>
  <rect x="244" y="167" width="36" height="6" rx="3" fill="#6E6EDB" fill-opacity="0.15" stroke="#CFCFF3" stroke-width="0.7"/>
</g>

<!-- SPARKLE -->
<rect x="262.947" y="187.972" width="40.309" height="40.309" rx="20.154" fill="white"/>
<rect x="262.947" y="187.972" width="40.309" height="40.309" rx="20.154" stroke="#E2E2F8" stroke-width="0.938"/>
<path d="M280.301 199.425L281.423 202.434C281.917 203.759 283.037 204.801 284.461 205.262L287.690 206.307L284.461 207.352C283.037 207.813 281.917 208.855 281.423 210.182L280.301 213.190L279.179 210.182C278.684 208.855 277.565 207.813 276.142 207.352L272.912 206.307L276.142 205.262C277.565 204.801 278.684 203.759 279.179 202.434L280.301 199.425Z" fill="#6E6EDB" opacity="0.8"/>
<path d="M288.996 208.737L289.147 209.141C289.642 210.467 290.759 211.510 292.184 211.970L292.619 212.110L292.184 212.250C290.759 212.711 289.642 213.754 289.147 215.080L288.996 215.484L288.845 215.080C288.350 213.754 287.231 212.711 285.807 212.250L285.374 212.110L285.807 211.970C287.231 211.510 288.350 210.467 288.845 209.141L288.996 208.737Z" fill="#6E6EDB" opacity="0.8"/>
<path d="M287.547 198.617C287.853 199.439 288.547 200.085 289.430 200.370C288.547 200.657 287.853 201.303 287.547 202.125C287.239 201.303 286.545 200.657 285.663 200.370C286.545 200.085 287.239 199.439 287.547 198.617Z" fill="#6E6EDB" opacity="0.8"/>
</svg>
